<?xml version="1.0" encoding="utf-8"?>
<svg xmlns="http://www.w3.org/2000/svg" xmlns:xlink="http://www.w3.org/1999/xlink" width="600" height="400" viewBox="0 0 2400 1600">
<defs>
  <clipPath id="clip200">
    <rect x="0" y="0" width="2400" height="1600"/>
  </clipPath>
</defs>
<path clip-path="url(#clip200)" d="M0 1600 L2400 1600 L2400 0 L0 0  Z" fill="#ffffff" fill-rule="evenodd" fill-opacity="1"/>
<defs>
  <clipPath id="clip201">
    <rect x="480" y="0" width="1681" height="1600"/>
  </clipPath>
</defs>
<path clip-path="url(#clip200)" d="M141.853 1486.45 L2352.76 1486.45 L2352.76 123.472 L141.853 123.472  Z" fill="#ffffff" fill-rule="evenodd" fill-opacity="1"/>
<defs>
  <clipPath id="clip202">
    <rect x="141" y="123" width="2212" height="1364"/>
  </clipPath>
</defs>
<polyline clip-path="url(#clip202)" style="stroke:#000000; stroke-linecap:round; stroke-linejoin:round; stroke-width:2; stroke-opacity:0.1; fill:none" points="161.859,1486.45 161.859,123.472 "/>
<polyline clip-path="url(#clip202)" style="stroke:#000000; stroke-linecap:round; stroke-linejoin:round; stroke-width:2; stroke-opacity:0.1; fill:none" points="693.94,1486.45 693.94,123.472 "/>
<polyline clip-path="url(#clip202)" style="stroke:#000000; stroke-linecap:round; stroke-linejoin:round; stroke-width:2; stroke-opacity:0.1; fill:none" points="1226.02,1486.45 1226.02,123.472 "/>
<polyline clip-path="url(#clip202)" style="stroke:#000000; stroke-linecap:round; stroke-linejoin:round; stroke-width:2; stroke-opacity:0.1; fill:none" points="1758.1,1486.45 1758.1,123.472 "/>
<polyline clip-path="url(#clip202)" style="stroke:#000000; stroke-linecap:round; stroke-linejoin:round; stroke-width:2; stroke-opacity:0.1; fill:none" points="2290.18,1486.45 2290.18,123.472 "/>
<polyline clip-path="url(#clip200)" style="stroke:#000000; stroke-linecap:round; stroke-linejoin:round; stroke-width:4; stroke-opacity:1; fill:none" points="141.853,1486.45 2352.76,1486.45 "/>
<polyline clip-path="url(#clip200)" style="stroke:#000000; stroke-linecap:round; stroke-linejoin:round; stroke-width:4; stroke-opacity:1; fill:none" points="161.859,1486.45 161.859,1467.55 "/>
<polyline clip-path="url(#clip200)" style="stroke:#000000; stroke-linecap:round; stroke-linejoin:round; stroke-width:4; stroke-opacity:1; fill:none" points="693.94,1486.45 693.94,1467.55 "/>
<polyline clip-path="url(#clip200)" style="stroke:#000000; stroke-linecap:round; stroke-linejoin:round; stroke-width:4; stroke-opacity:1; fill:none" points="1226.02,1486.45 1226.02,1467.55 "/>
<polyline clip-path="url(#clip200)" style="stroke:#000000; stroke-linecap:round; stroke-linejoin:round; stroke-width:4; stroke-opacity:1; fill:none" points="1758.1,1486.45 1758.1,1467.55 "/>
<polyline clip-path="url(#clip200)" style="stroke:#000000; stroke-linecap:round; stroke-linejoin:round; stroke-width:4; stroke-opacity:1; fill:none" points="2290.18,1486.45 2290.18,1467.55 "/>
<path clip-path="url(#clip200)" d="M161.859 1517.37 Q158.248 1517.37 156.419 1520.93 Q154.614 1524.47 154.614 1531.6 Q154.614 1538.71 156.419 1542.27 Q158.248 1545.82 161.859 1545.82 Q165.493 1545.82 167.299 1542.27 Q169.128 1538.71 169.128 1531.6 Q169.128 1524.47 167.299 1520.93 Q165.493 1517.37 161.859 1517.37 M161.859 1513.66 Q167.669 1513.66 170.725 1518.27 Q173.804 1522.85 173.804 1531.6 Q173.804 1540.33 170.725 1544.94 Q167.669 1549.52 161.859 1549.52 Q156.049 1549.52 152.97 1544.94 Q149.915 1540.33 149.915 1531.6 Q149.915 1522.85 152.97 1518.27 Q156.049 1513.66 161.859 1513.66 Z" fill="#000000" fill-rule="nonzero" fill-opacity="1" /><path clip-path="url(#clip200)" d="M673.211 1544.91 L689.53 1544.91 L689.53 1548.85 L667.586 1548.85 L667.586 1544.91 Q670.248 1542.16 674.831 1537.53 Q679.438 1532.88 680.618 1531.53 Q682.864 1529.01 683.743 1527.27 Q684.646 1525.51 684.646 1523.82 Q684.646 1521.07 682.702 1519.33 Q680.781 1517.6 677.679 1517.6 Q675.48 1517.6 673.026 1518.36 Q670.595 1519.13 667.818 1520.68 L667.818 1515.95 Q670.642 1514.82 673.095 1514.24 Q675.549 1513.66 677.586 1513.66 Q682.956 1513.66 686.151 1516.35 Q689.345 1519.03 689.345 1523.52 Q689.345 1525.65 688.535 1527.57 Q687.748 1529.47 685.642 1532.07 Q685.063 1532.74 681.961 1535.95 Q678.859 1539.15 673.211 1544.91 Z" fill="#000000" fill-rule="nonzero" fill-opacity="1" /><path clip-path="url(#clip200)" d="M699.392 1514.29 L717.748 1514.29 L717.748 1518.22 L703.674 1518.22 L703.674 1526.7 Q704.692 1526.35 705.711 1526.19 Q706.729 1526 707.748 1526 Q713.535 1526 716.915 1529.17 Q720.294 1532.34 720.294 1537.76 Q720.294 1543.34 716.822 1546.44 Q713.35 1549.52 707.03 1549.52 Q704.854 1549.52 702.586 1549.15 Q700.341 1548.78 697.933 1548.04 L697.933 1543.34 Q700.017 1544.47 702.239 1545.03 Q704.461 1545.58 706.938 1545.58 Q710.942 1545.58 713.28 1543.48 Q715.618 1541.37 715.618 1537.76 Q715.618 1534.15 713.28 1532.04 Q710.942 1529.94 706.938 1529.94 Q705.063 1529.94 703.188 1530.35 Q701.336 1530.77 699.392 1531.65 L699.392 1514.29 Z" fill="#000000" fill-rule="nonzero" fill-opacity="1" /><path clip-path="url(#clip200)" d="M1200.72 1514.29 L1219.08 1514.29 L1219.08 1518.22 L1205 1518.22 L1205 1526.7 Q1206.02 1526.35 1207.04 1526.19 Q1208.06 1526 1209.08 1526 Q1214.86 1526 1218.24 1529.17 Q1221.62 1532.34 1221.62 1537.76 Q1221.62 1543.34 1218.15 1546.44 Q1214.68 1549.52 1208.36 1549.52 Q1206.18 1549.52 1203.91 1549.15 Q1201.67 1548.78 1199.26 1548.04 L1199.26 1543.34 Q1201.35 1544.47 1203.57 1545.03 Q1205.79 1545.58 1208.27 1545.58 Q1212.27 1545.58 1214.61 1543.48 Q1216.95 1541.37 1216.95 1537.76 Q1216.95 1534.15 1214.61 1532.04 Q1212.27 1529.94 1208.27 1529.94 Q1206.39 1529.94 1204.52 1530.35 Q1202.66 1530.77 1200.72 1531.65 L1200.72 1514.29 Z" fill="#000000" fill-rule="nonzero" fill-opacity="1" /><path clip-path="url(#clip200)" d="M1240.84 1517.37 Q1237.22 1517.37 1235.4 1520.93 Q1233.59 1524.47 1233.59 1531.6 Q1233.59 1538.71 1235.4 1542.27 Q1237.22 1545.82 1240.84 1545.82 Q1244.47 1545.82 1246.28 1542.27 Q1248.1 1538.71 1248.1 1531.6 Q1248.1 1524.47 1246.28 1520.93 Q1244.47 1517.37 1240.84 1517.37 M1240.84 1513.66 Q1246.65 1513.66 1249.7 1518.27 Q1252.78 1522.85 1252.78 1531.6 Q1252.78 1540.33 1249.7 1544.94 Q1246.65 1549.52 1240.84 1549.52 Q1235.03 1549.52 1231.95 1544.94 Q1228.89 1540.33 1228.89 1531.6 Q1228.89 1522.85 1231.95 1518.27 Q1235.03 1513.66 1240.84 1513.66 Z" fill="#000000" fill-rule="nonzero" fill-opacity="1" /><path clip-path="url(#clip200)" d="M1731.96 1514.29 L1754.18 1514.29 L1754.18 1516.28 L1741.63 1548.85 L1736.75 1548.85 L1748.55 1518.22 L1731.96 1518.22 L1731.96 1514.29 Z" fill="#000000" fill-rule="nonzero" fill-opacity="1" /><path clip-path="url(#clip200)" d="M1763.35 1514.29 L1781.7 1514.29 L1781.7 1518.22 L1767.63 1518.22 L1767.63 1526.7 Q1768.65 1526.35 1769.66 1526.19 Q1770.68 1526 1771.7 1526 Q1777.49 1526 1780.87 1529.17 Q1784.25 1532.34 1784.25 1537.76 Q1784.25 1543.34 1780.78 1546.44 Q1777.3 1549.52 1770.98 1549.52 Q1768.81 1549.52 1766.54 1549.15 Q1764.29 1548.78 1761.89 1548.04 L1761.89 1543.34 Q1763.97 1544.47 1766.19 1545.03 Q1768.41 1545.58 1770.89 1545.58 Q1774.9 1545.58 1777.23 1543.48 Q1779.57 1541.37 1779.57 1537.76 Q1779.57 1534.15 1777.23 1532.04 Q1774.9 1529.94 1770.89 1529.94 Q1769.02 1529.94 1767.14 1530.35 Q1765.29 1530.77 1763.35 1531.65 L1763.35 1514.29 Z" fill="#000000" fill-rule="nonzero" fill-opacity="1" /><path clip-path="url(#clip200)" d="M2249.79 1544.91 L2257.43 1544.91 L2257.43 1518.55 L2249.12 1520.21 L2249.12 1515.95 L2257.38 1514.29 L2262.06 1514.29 L2262.06 1544.91 L2269.7 1544.91 L2269.7 1548.85 L2249.79 1548.85 L2249.79 1544.91 Z" fill="#000000" fill-rule="nonzero" fill-opacity="1" /><path clip-path="url(#clip200)" d="M2289.14 1517.37 Q2285.53 1517.37 2283.7 1520.93 Q2281.9 1524.47 2281.9 1531.6 Q2281.9 1538.71 2283.7 1542.27 Q2285.53 1545.82 2289.14 1545.82 Q2292.78 1545.82 2294.58 1542.27 Q2296.41 1538.71 2296.41 1531.6 Q2296.41 1524.47 2294.58 1520.93 Q2292.78 1517.37 2289.14 1517.37 M2289.14 1513.66 Q2294.95 1513.66 2298.01 1518.27 Q2301.09 1522.85 2301.09 1531.6 Q2301.09 1540.33 2298.01 1544.94 Q2294.95 1549.52 2289.14 1549.52 Q2283.33 1549.52 2280.25 1544.94 Q2277.2 1540.33 2277.2 1531.6 Q2277.2 1522.85 2280.25 1518.27 Q2283.33 1513.66 2289.14 1513.66 Z" fill="#000000" fill-rule="nonzero" fill-opacity="1" /><path clip-path="url(#clip200)" d="M2319.3 1517.37 Q2315.69 1517.37 2313.86 1520.93 Q2312.06 1524.47 2312.06 1531.6 Q2312.06 1538.71 2313.86 1542.27 Q2315.69 1545.82 2319.3 1545.82 Q2322.94 1545.82 2324.74 1542.27 Q2326.57 1538.71 2326.57 1531.6 Q2326.57 1524.47 2324.74 1520.93 Q2322.94 1517.37 2319.3 1517.37 M2319.3 1513.66 Q2325.11 1513.66 2328.17 1518.27 Q2331.25 1522.85 2331.25 1531.6 Q2331.25 1540.33 2328.17 1544.94 Q2325.11 1549.52 2319.3 1549.52 Q2313.49 1549.52 2310.41 1544.94 Q2307.36 1540.33 2307.36 1531.6 Q2307.36 1522.85 2310.41 1518.27 Q2313.49 1513.66 2319.3 1513.66 Z" fill="#000000" fill-rule="nonzero" fill-opacity="1" /><polyline clip-path="url(#clip202)" style="stroke:#000000; stroke-linecap:round; stroke-linejoin:round; stroke-width:2; stroke-opacity:0.1; fill:none" points="141.853,1403.05 2352.76,1403.05 "/>
<polyline clip-path="url(#clip202)" style="stroke:#000000; stroke-linecap:round; stroke-linejoin:round; stroke-width:2; stroke-opacity:0.1; fill:none" points="141.853,1198.2 2352.76,1198.2 "/>
<polyline clip-path="url(#clip202)" style="stroke:#000000; stroke-linecap:round; stroke-linejoin:round; stroke-width:2; stroke-opacity:0.1; fill:none" points="141.853,993.345 2352.76,993.345 "/>
<polyline clip-path="url(#clip202)" style="stroke:#000000; stroke-linecap:round; stroke-linejoin:round; stroke-width:2; stroke-opacity:0.1; fill:none" points="141.853,788.494 2352.76,788.494 "/>
<polyline clip-path="url(#clip202)" style="stroke:#000000; stroke-linecap:round; stroke-linejoin:round; stroke-width:2; stroke-opacity:0.1; fill:none" points="141.853,583.643 2352.76,583.643 "/>
<polyline clip-path="url(#clip202)" style="stroke:#000000; stroke-linecap:round; stroke-linejoin:round; stroke-width:2; stroke-opacity:0.1; fill:none" points="141.853,378.793 2352.76,378.793 "/>
<polyline clip-path="url(#clip202)" style="stroke:#000000; stroke-linecap:round; stroke-linejoin:round; stroke-width:2; stroke-opacity:0.1; fill:none" points="141.853,173.942 2352.76,173.942 "/>
<polyline clip-path="url(#clip200)" style="stroke:#000000; stroke-linecap:round; stroke-linejoin:round; stroke-width:4; stroke-opacity:1; fill:none" points="141.853,1486.45 141.853,123.472 "/>
<polyline clip-path="url(#clip200)" style="stroke:#000000; stroke-linecap:round; stroke-linejoin:round; stroke-width:4; stroke-opacity:1; fill:none" points="141.853,1403.05 160.751,1403.05 "/>
<polyline clip-path="url(#clip200)" style="stroke:#000000; stroke-linecap:round; stroke-linejoin:round; stroke-width:4; stroke-opacity:1; fill:none" points="141.853,1198.2 160.751,1198.2 "/>
<polyline clip-path="url(#clip200)" style="stroke:#000000; stroke-linecap:round; stroke-linejoin:round; stroke-width:4; stroke-opacity:1; fill:none" points="141.853,993.345 160.751,993.345 "/>
<polyline clip-path="url(#clip200)" style="stroke:#000000; stroke-linecap:round; stroke-linejoin:round; stroke-width:4; stroke-opacity:1; fill:none" points="141.853,788.494 160.751,788.494 "/>
<polyline clip-path="url(#clip200)" style="stroke:#000000; stroke-linecap:round; stroke-linejoin:round; stroke-width:4; stroke-opacity:1; fill:none" points="141.853,583.643 160.751,583.643 "/>
<polyline clip-path="url(#clip200)" style="stroke:#000000; stroke-linecap:round; stroke-linejoin:round; stroke-width:4; stroke-opacity:1; fill:none" points="141.853,378.793 160.751,378.793 "/>
<polyline clip-path="url(#clip200)" style="stroke:#000000; stroke-linecap:round; stroke-linejoin:round; stroke-width:4; stroke-opacity:1; fill:none" points="141.853,173.942 160.751,173.942 "/>
<path clip-path="url(#clip200)" d="M93.9086 1388.85 Q90.2975 1388.85 88.4688 1392.41 Q86.6632 1395.95 86.6632 1403.08 Q86.6632 1410.19 88.4688 1413.75 Q90.2975 1417.29 93.9086 1417.29 Q97.5428 1417.29 99.3483 1413.75 Q101.177 1410.19 101.177 1403.08 Q101.177 1395.95 99.3483 1392.41 Q97.5428 1388.85 93.9086 1388.85 M93.9086 1385.14 Q99.7187 1385.14 102.774 1389.75 Q105.853 1394.33 105.853 1403.08 Q105.853 1411.81 102.774 1416.41 Q99.7187 1421 93.9086 1421 Q88.0984 1421 85.0197 1416.41 Q81.9642 1411.81 81.9642 1403.08 Q81.9642 1394.33 85.0197 1389.75 Q88.0984 1385.14 93.9086 1385.14 Z" fill="#000000" fill-rule="nonzero" fill-opacity="1" /><path clip-path="url(#clip200)" d="M54.5569 1211.54 L62.1958 1211.54 L62.1958 1185.18 L53.8856 1186.84 L53.8856 1182.58 L62.1495 1180.92 L66.8254 1180.92 L66.8254 1211.54 L74.4642 1211.54 L74.4642 1215.48 L54.5569 1215.48 L54.5569 1211.54 Z" fill="#000000" fill-rule="nonzero" fill-opacity="1" /><path clip-path="url(#clip200)" d="M93.9086 1183.99 Q90.2975 1183.99 88.4688 1187.56 Q86.6632 1191.1 86.6632 1198.23 Q86.6632 1205.34 88.4688 1208.9 Q90.2975 1212.44 93.9086 1212.44 Q97.5428 1212.44 99.3483 1208.9 Q101.177 1205.34 101.177 1198.23 Q101.177 1191.1 99.3483 1187.56 Q97.5428 1183.99 93.9086 1183.99 M93.9086 1180.29 Q99.7187 1180.29 102.774 1184.9 Q105.853 1189.48 105.853 1198.23 Q105.853 1206.96 102.774 1211.56 Q99.7187 1216.15 93.9086 1216.15 Q88.0984 1216.15 85.0197 1211.56 Q81.9642 1206.96 81.9642 1198.23 Q81.9642 1189.48 85.0197 1184.9 Q88.0984 1180.29 93.9086 1180.29 Z" fill="#000000" fill-rule="nonzero" fill-opacity="1" /><path clip-path="url(#clip200)" d="M57.7745 1006.69 L74.0939 1006.69 L74.0939 1010.63 L52.1495 1010.63 L52.1495 1006.69 Q54.8115 1003.94 59.3949 999.306 Q64.0013 994.653 65.1819 993.31 Q67.4272 990.787 68.3068 989.051 Q69.2096 987.292 69.2096 985.602 Q69.2096 982.847 67.2652 981.111 Q65.3439 979.375 62.2421 979.375 Q60.043 979.375 57.5893 980.139 Q55.1588 980.903 52.381 982.454 L52.381 977.732 Q55.2051 976.598 57.6588 976.019 Q60.1124 975.44 62.1495 975.44 Q67.5198 975.44 70.7142 978.125 Q73.9087 980.81 73.9087 985.301 Q73.9087 987.431 73.0985 989.352 Q72.3115 991.25 70.205 993.843 Q69.6263 994.514 66.5245 997.732 Q63.4226 1000.93 57.7745 1006.69 Z" fill="#000000" fill-rule="nonzero" fill-opacity="1" /><path clip-path="url(#clip200)" d="M93.9086 979.144 Q90.2975 979.144 88.4688 982.709 Q86.6632 986.25 86.6632 993.38 Q86.6632 1000.49 88.4688 1004.05 Q90.2975 1007.59 93.9086 1007.59 Q97.5428 1007.59 99.3483 1004.05 Q101.177 1000.49 101.177 993.38 Q101.177 986.25 99.3483 982.709 Q97.5428 979.144 93.9086 979.144 M93.9086 975.44 Q99.7187 975.44 102.774 980.047 Q105.853 984.63 105.853 993.38 Q105.853 1002.11 102.774 1006.71 Q99.7187 1011.3 93.9086 1011.3 Q88.0984 1011.3 85.0197 1006.71 Q81.9642 1002.11 81.9642 993.38 Q81.9642 984.63 85.0197 980.047 Q88.0984 975.44 93.9086 975.44 Z" fill="#000000" fill-rule="nonzero" fill-opacity="1" /><path clip-path="url(#clip200)" d="M67.9133 787.14 Q71.2698 787.858 73.1448 790.126 Q75.0429 792.395 75.0429 795.728 Q75.0429 800.844 71.5244 803.645 Q68.0059 806.446 61.5245 806.446 Q59.3486 806.446 57.0338 806.006 Q54.7421 805.589 52.2884 804.733 L52.2884 800.219 Q54.2328 801.353 56.5477 801.932 Q58.8625 802.51 61.3856 802.51 Q65.7837 802.51 68.0754 800.774 Q70.3902 799.038 70.3902 795.728 Q70.3902 792.672 68.2374 790.96 Q66.1078 789.223 62.2884 789.223 L58.2606 789.223 L58.2606 785.381 L62.4735 785.381 Q65.9226 785.381 67.7513 784.015 Q69.58 782.626 69.58 780.034 Q69.58 777.372 67.6819 775.96 Q65.8069 774.524 62.2884 774.524 Q60.3671 774.524 58.168 774.941 Q55.969 775.358 53.3301 776.237 L53.3301 772.071 Q55.9921 771.33 58.3069 770.96 Q60.6449 770.589 62.705 770.589 Q68.0291 770.589 71.1309 773.02 Q74.2327 775.427 74.2327 779.548 Q74.2327 782.418 72.5892 784.409 Q70.9457 786.376 67.9133 787.14 Z" fill="#000000" fill-rule="nonzero" fill-opacity="1" /><path clip-path="url(#clip200)" d="M93.9086 774.293 Q90.2975 774.293 88.4688 777.858 Q86.6632 781.399 86.6632 788.529 Q86.6632 795.635 88.4688 799.2 Q90.2975 802.742 93.9086 802.742 Q97.5428 802.742 99.3483 799.2 Q101.177 795.635 101.177 788.529 Q101.177 781.399 99.3483 777.858 Q97.5428 774.293 93.9086 774.293 M93.9086 770.589 Q99.7187 770.589 102.774 775.196 Q105.853 779.779 105.853 788.529 Q105.853 797.256 102.774 801.862 Q99.7187 806.446 93.9086 806.446 Q88.0984 806.446 85.0197 801.862 Q81.9642 797.256 81.9642 788.529 Q81.9642 779.779 85.0197 775.196 Q88.0984 770.589 93.9086 770.589 Z" fill="#000000" fill-rule="nonzero" fill-opacity="1" /><path clip-path="url(#clip200)" d="M66.5939 570.437 L54.7884 588.886 L66.5939 588.886 L66.5939 570.437 M65.367 566.363 L71.2466 566.363 L71.2466 588.886 L76.1772 588.886 L76.1772 592.775 L71.2466 592.775 L71.2466 600.923 L66.5939 600.923 L66.5939 592.775 L50.9921 592.775 L50.9921 588.261 L65.367 566.363 Z" fill="#000000" fill-rule="nonzero" fill-opacity="1" /><path clip-path="url(#clip200)" d="M93.9086 569.442 Q90.2975 569.442 88.4688 573.007 Q86.6632 576.549 86.6632 583.678 Q86.6632 590.785 88.4688 594.349 Q90.2975 597.891 93.9086 597.891 Q97.5428 597.891 99.3483 594.349 Q101.177 590.785 101.177 583.678 Q101.177 576.549 99.3483 573.007 Q97.5428 569.442 93.9086 569.442 M93.9086 565.738 Q99.7187 565.738 102.774 570.345 Q105.853 574.928 105.853 583.678 Q105.853 592.405 102.774 597.011 Q99.7187 601.595 93.9086 601.595 Q88.0984 601.595 85.0197 597.011 Q81.9642 592.405 81.9642 583.678 Q81.9642 574.928 85.0197 570.345 Q88.0984 565.738 93.9086 565.738 Z" fill="#000000" fill-rule="nonzero" fill-opacity="1" /><path clip-path="url(#clip200)" d="M53.793 361.513 L72.1494 361.513 L72.1494 365.448 L58.0754 365.448 L58.0754 373.92 Q59.0939 373.573 60.1124 373.411 Q61.131 373.225 62.1495 373.225 Q67.9365 373.225 71.3161 376.397 Q74.6957 379.568 74.6957 384.985 Q74.6957 390.563 71.2235 393.665 Q67.7513 396.744 61.4319 396.744 Q59.256 396.744 56.9875 396.373 Q54.7421 396.003 52.3347 395.262 L52.3347 390.563 Q54.418 391.698 56.6402 392.253 Q58.8625 392.809 61.3393 392.809 Q65.3439 392.809 67.6819 390.702 Q70.0198 388.596 70.0198 384.985 Q70.0198 381.374 67.6819 379.267 Q65.3439 377.161 61.3393 377.161 Q59.4643 377.161 57.5893 377.577 Q55.7375 377.994 53.793 378.874 L53.793 361.513 Z" fill="#000000" fill-rule="nonzero" fill-opacity="1" /><path clip-path="url(#clip200)" d="M93.9086 364.591 Q90.2975 364.591 88.4688 368.156 Q86.6632 371.698 86.6632 378.827 Q86.6632 385.934 88.4688 389.498 Q90.2975 393.04 93.9086 393.04 Q97.5428 393.04 99.3483 389.498 Q101.177 385.934 101.177 378.827 Q101.177 371.698 99.3483 368.156 Q97.5428 364.591 93.9086 364.591 M93.9086 360.888 Q99.7187 360.888 102.774 365.494 Q105.853 370.077 105.853 378.827 Q105.853 387.554 102.774 392.161 Q99.7187 396.744 93.9086 396.744 Q88.0984 396.744 85.0197 392.161 Q81.9642 387.554 81.9642 378.827 Q81.9642 370.077 85.0197 365.494 Q88.0984 360.888 93.9086 360.888 Z" fill="#000000" fill-rule="nonzero" fill-opacity="1" /><path clip-path="url(#clip200)" d="M64.3254 172.078 Q61.1773 172.078 59.3254 174.231 Q57.4967 176.384 57.4967 180.134 Q57.4967 183.861 59.3254 186.037 Q61.1773 188.189 64.3254 188.189 Q67.4735 188.189 69.3022 186.037 Q71.1541 183.861 71.1541 180.134 Q71.1541 176.384 69.3022 174.231 Q67.4735 172.078 64.3254 172.078 M73.6077 157.426 L73.6077 161.685 Q71.8485 160.851 70.0429 160.412 Q68.2606 159.972 66.5013 159.972 Q61.8717 159.972 59.418 163.097 Q56.9875 166.222 56.6402 172.541 Q58.006 170.527 60.0662 169.463 Q62.1263 168.375 64.6032 168.375 Q69.8115 168.375 72.8207 171.546 Q75.8531 174.694 75.8531 180.134 Q75.8531 185.458 72.705 188.675 Q69.5568 191.893 64.3254 191.893 Q58.33 191.893 55.1588 187.31 Q51.9875 182.703 51.9875 173.976 Q51.9875 165.782 55.8764 160.921 Q59.7652 156.037 66.3161 156.037 Q68.0754 156.037 69.8578 156.384 Q71.6633 156.731 73.6077 157.426 Z" fill="#000000" fill-rule="nonzero" fill-opacity="1" /><path clip-path="url(#clip200)" d="M93.9086 159.74 Q90.2975 159.74 88.4688 163.305 Q86.6632 166.847 86.6632 173.976 Q86.6632 181.083 88.4688 184.648 Q90.2975 188.189 93.9086 188.189 Q97.5428 188.189 99.3483 184.648 Q101.177 181.083 101.177 173.976 Q101.177 166.847 99.3483 163.305 Q97.5428 159.74 93.9086 159.74 M93.9086 156.037 Q99.7187 156.037 102.774 160.643 Q105.853 165.226 105.853 173.976 Q105.853 182.703 102.774 187.31 Q99.7187 191.893 93.9086 191.893 Q88.0984 191.893 85.0197 187.31 Q81.9642 182.703 81.9642 173.976 Q81.9642 165.226 85.0197 160.643 Q88.0984 156.037 93.9086 156.037 Z" fill="#000000" fill-rule="nonzero" fill-opacity="1" /><path clip-path="url(#clip200)" d="M785.582 44.2197 Q788.215 45.1109 790.687 48.0275 Q793.198 50.9442 795.71 56.0483 L804.014 72.576 L795.224 72.576 L787.486 57.061 Q784.489 50.9847 781.653 48.9997 Q778.858 47.0148 773.997 47.0148 L765.085 47.0148 L765.085 72.576 L756.902 72.576 L756.902 12.096 L775.374 12.096 Q785.744 12.096 790.849 16.4305 Q795.953 20.7649 795.953 29.5149 Q795.953 35.2267 793.279 38.994 Q790.646 42.7613 785.582 44.2197 M765.085 18.8205 L765.085 40.2903 L775.374 40.2903 Q781.288 40.2903 784.286 37.5762 Q787.324 34.8216 787.324 29.5149 Q787.324 24.2082 784.286 21.5346 Q781.288 18.8205 775.374 18.8205 L765.085 18.8205 Z" fill="#000000" fill-rule="nonzero" fill-opacity="1" /><path clip-path="url(#clip200)" d="M849.303 48.0275 L849.303 51.6733 L815.032 51.6733 Q815.519 59.3701 819.65 63.421 Q823.823 67.4314 831.236 67.4314 Q835.53 67.4314 839.54 66.3781 Q843.591 65.3249 847.561 63.2184 L847.561 70.267 Q843.551 71.9684 839.338 72.8596 Q835.125 73.7508 830.79 73.7508 Q819.934 73.7508 813.574 67.4314 Q807.255 61.1119 807.255 50.3365 Q807.255 39.1965 813.25 32.6746 Q819.286 26.1121 829.494 26.1121 Q838.649 26.1121 843.956 32.0264 Q849.303 37.9003 849.303 48.0275 M841.849 45.84 Q841.768 39.7232 838.406 36.0774 Q835.084 32.4315 829.575 32.4315 Q823.337 32.4315 819.569 35.9558 Q815.843 39.4801 815.275 45.8805 L841.849 45.84 Z" fill="#000000" fill-rule="nonzero" fill-opacity="1" /><path clip-path="url(#clip200)" d="M891.392 49.3643 Q891.392 41.2625 888.03 36.8065 Q884.708 32.3505 878.672 32.3505 Q872.677 32.3505 869.315 36.8065 Q865.993 41.2625 865.993 49.3643 Q865.993 57.4256 869.315 61.8816 Q872.677 66.3376 878.672 66.3376 Q884.708 66.3376 888.03 61.8816 Q891.392 57.4256 891.392 49.3643 M898.846 66.9452 Q898.846 78.5308 893.701 84.1616 Q888.556 89.8329 877.943 89.8329 Q874.014 89.8329 870.53 89.2252 Q867.046 88.6581 863.765 87.4428 L863.765 80.1917 Q867.046 81.9741 870.246 82.8248 Q873.446 83.6755 876.768 83.6755 Q884.1 83.6755 887.746 79.8271 Q891.392 76.0193 891.392 68.282 L891.392 64.5957 Q889.083 68.6061 885.478 70.5911 Q881.872 72.576 876.849 72.576 Q868.504 72.576 863.4 66.2161 Q858.296 59.8562 858.296 49.3643 Q858.296 38.832 863.4 32.472 Q868.504 26.1121 876.849 26.1121 Q881.872 26.1121 885.478 28.0971 Q889.083 30.082 891.392 34.0924 L891.392 27.2059 L898.846 27.2059 L898.846 66.9452 Z" fill="#000000" fill-rule="nonzero" fill-opacity="1" /><path clip-path="url(#clip200)" d="M940.489 34.1734 Q939.233 33.4443 937.734 33.1202 Q936.276 32.7556 934.494 32.7556 Q928.174 32.7556 924.771 36.8875 Q921.409 40.9789 921.409 48.6757 L921.409 72.576 L913.915 72.576 L913.915 27.2059 L921.409 27.2059 L921.409 34.2544 Q923.759 30.1225 927.526 28.1376 Q931.293 26.1121 936.681 26.1121 Q937.451 26.1121 938.382 26.2337 Q939.314 26.3147 940.448 26.5172 L940.489 34.1734 Z" fill="#000000" fill-rule="nonzero" fill-opacity="1" /><path clip-path="url(#clip200)" d="M985.292 48.0275 L985.292 51.6733 L951.021 51.6733 Q951.507 59.3701 955.639 63.421 Q959.812 67.4314 967.225 67.4314 Q971.519 67.4314 975.529 66.3781 Q979.58 65.3249 983.55 63.2184 L983.55 70.267 Q979.54 71.9684 975.327 72.8596 Q971.114 73.7508 966.779 73.7508 Q955.923 73.7508 949.563 67.4314 Q943.244 61.1119 943.244 50.3365 Q943.244 39.1965 949.239 32.6746 Q955.275 26.1121 965.483 26.1121 Q974.638 26.1121 979.945 32.0264 Q985.292 37.9003 985.292 48.0275 M977.838 45.84 Q977.757 39.7232 974.395 36.0774 Q971.073 32.4315 965.564 32.4315 Q959.326 32.4315 955.558 35.9558 Q951.831 39.4801 951.264 45.8805 L977.838 45.84 Z" fill="#000000" fill-rule="nonzero" fill-opacity="1" /><path clip-path="url(#clip200)" d="M1026.45 28.5427 L1026.45 35.5912 Q1023.29 33.9709 1019.89 33.1607 Q1016.48 32.3505 1012.84 32.3505 Q1007.29 32.3505 1004.49 34.0519 Q1001.74 35.7533 1001.74 39.156 Q1001.74 41.7486 1003.72 43.2475 Q1005.71 44.7058 1011.7 46.0426 L1014.26 46.6097 Q1022.2 48.3111 1025.52 51.4303 Q1028.88 54.509 1028.88 60.0587 Q1028.88 66.3781 1023.86 70.0644 Q1018.87 73.7508 1010.12 73.7508 Q1006.48 73.7508 1002.51 73.0216 Q998.579 72.3329 994.204 70.9151 L994.204 63.2184 Q998.336 65.3654 1002.35 66.4591 Q1006.36 67.5124 1010.29 67.5124 Q1015.55 67.5124 1018.39 65.73 Q1021.22 63.9071 1021.22 60.6258 Q1021.22 57.5877 1019.16 55.9673 Q1017.13 54.3469 1010.21 52.8481 L1007.61 52.2405 Q1000.69 50.7821 997.607 47.7845 Q994.528 44.7463 994.528 39.4801 Q994.528 33.0797 999.065 29.5959 Q1003.6 26.1121 1011.95 26.1121 Q1016.08 26.1121 1019.72 26.7198 Q1023.37 27.3274 1026.45 28.5427 Z" fill="#000000" fill-rule="nonzero" fill-opacity="1" /><path clip-path="url(#clip200)" d="M1040.75 27.2059 L1048.2 27.2059 L1048.2 72.576 L1040.75 72.576 L1040.75 27.2059 M1040.75 9.54393 L1048.2 9.54393 L1048.2 18.9825 L1040.75 18.9825 L1040.75 9.54393 Z" fill="#000000" fill-rule="nonzero" fill-opacity="1" /><path clip-path="url(#clip200)" d="M1081.38 32.4315 Q1075.38 32.4315 1071.9 37.1306 Q1068.42 41.7891 1068.42 49.9314 Q1068.42 58.0738 1071.86 62.7728 Q1075.34 67.4314 1081.38 67.4314 Q1087.33 67.4314 1090.82 62.7323 Q1094.3 58.0333 1094.3 49.9314 Q1094.3 41.8701 1090.82 37.1711 Q1087.33 32.4315 1081.38 32.4315 M1081.38 26.1121 Q1091.1 26.1121 1096.65 32.4315 Q1102.2 38.7509 1102.2 49.9314 Q1102.2 61.0714 1096.65 67.4314 Q1091.1 73.7508 1081.38 73.7508 Q1071.62 73.7508 1066.07 67.4314 Q1060.56 61.0714 1060.56 49.9314 Q1060.56 38.7509 1066.07 32.4315 Q1071.62 26.1121 1081.38 26.1121 Z" fill="#000000" fill-rule="nonzero" fill-opacity="1" /><path clip-path="url(#clip200)" d="M1152.27 45.1919 L1152.27 72.576 L1144.82 72.576 L1144.82 45.4349 Q1144.82 38.994 1142.3 35.7938 Q1139.79 32.5936 1134.77 32.5936 Q1128.73 32.5936 1125.25 36.4419 Q1121.77 40.2903 1121.77 46.9338 L1121.77 72.576 L1114.27 72.576 L1114.27 27.2059 L1121.77 27.2059 L1121.77 34.2544 Q1124.44 30.163 1128.05 28.1376 Q1131.69 26.1121 1136.43 26.1121 Q1144.25 26.1121 1148.26 30.9732 Q1152.27 35.7938 1152.27 45.1919 Z" fill="#000000" fill-rule="nonzero" fill-opacity="1" /><path clip-path="url(#clip200)" d="M1193.83 12.096 L1202.02 12.096 L1202.02 65.6895 L1231.47 65.6895 L1231.47 72.576 L1193.83 72.576 L1193.83 12.096 Z" fill="#000000" fill-rule="nonzero" fill-opacity="1" /><path clip-path="url(#clip200)" d="M1239.73 27.2059 L1247.18 27.2059 L1247.18 72.576 L1239.73 72.576 L1239.73 27.2059 M1239.73 9.54393 L1247.18 9.54393 L1247.18 18.9825 L1239.73 18.9825 L1239.73 9.54393 Z" fill="#000000" fill-rule="nonzero" fill-opacity="1" /><path clip-path="url(#clip200)" d="M1300.49 45.1919 L1300.49 72.576 L1293.04 72.576 L1293.04 45.4349 Q1293.04 38.994 1290.53 35.7938 Q1288.02 32.5936 1282.99 32.5936 Q1276.96 32.5936 1273.47 36.4419 Q1269.99 40.2903 1269.99 46.9338 L1269.99 72.576 L1262.5 72.576 L1262.5 27.2059 L1269.99 27.2059 L1269.99 34.2544 Q1272.66 30.163 1276.27 28.1376 Q1279.91 26.1121 1284.65 26.1121 Q1292.47 26.1121 1296.48 30.9732 Q1300.49 35.7938 1300.49 45.1919 Z" fill="#000000" fill-rule="nonzero" fill-opacity="1" /><path clip-path="url(#clip200)" d="M1354.17 48.0275 L1354.17 51.6733 L1319.9 51.6733 Q1320.38 59.3701 1324.51 63.421 Q1328.69 67.4314 1336.1 67.4314 Q1340.39 67.4314 1344.4 66.3781 Q1348.46 65.3249 1352.43 63.2184 L1352.43 70.267 Q1348.41 71.9684 1344.2 72.8596 Q1339.99 73.7508 1335.65 73.7508 Q1324.8 73.7508 1318.44 67.4314 Q1312.12 61.1119 1312.12 50.3365 Q1312.12 39.1965 1318.11 32.6746 Q1324.15 26.1121 1334.36 26.1121 Q1343.51 26.1121 1348.82 32.0264 Q1354.17 37.9003 1354.17 48.0275 M1346.71 45.84 Q1346.63 39.7232 1343.27 36.0774 Q1339.95 32.4315 1334.44 32.4315 Q1328.2 32.4315 1324.43 35.9558 Q1320.71 39.4801 1320.14 45.8805 L1346.71 45.84 Z" fill="#000000" fill-rule="nonzero" fill-opacity="1" /><path clip-path="url(#clip200)" d="M1387.02 49.7694 Q1377.99 49.7694 1374.5 51.8354 Q1371.02 53.9013 1371.02 58.8839 Q1371.02 62.8538 1373.61 65.2034 Q1376.24 67.5124 1380.74 67.5124 Q1386.94 67.5124 1390.67 63.1374 Q1394.43 58.7219 1394.43 51.4303 L1394.43 49.7694 L1387.02 49.7694 M1401.89 46.6907 L1401.89 72.576 L1394.43 72.576 L1394.43 65.6895 Q1391.88 69.8214 1388.07 71.8063 Q1384.27 73.7508 1378.76 73.7508 Q1371.79 73.7508 1367.66 69.8619 Q1363.57 65.9325 1363.57 59.3701 Q1363.57 51.7138 1368.67 47.825 Q1373.81 43.9361 1383.98 43.9361 L1394.43 43.9361 L1394.43 43.2069 Q1394.43 38.0623 1391.03 35.2672 Q1387.67 32.4315 1381.55 32.4315 Q1377.66 32.4315 1373.98 33.3632 Q1370.29 34.295 1366.89 36.1584 L1366.89 29.2718 Q1370.98 27.692 1374.83 26.9223 Q1378.68 26.1121 1382.32 26.1121 Q1392.16 26.1121 1397.03 31.2163 Q1401.89 36.3204 1401.89 46.6907 Z" fill="#000000" fill-rule="nonzero" fill-opacity="1" /><path clip-path="url(#clip200)" d="M1417.24 9.54393 L1424.69 9.54393 L1424.69 72.576 L1417.24 72.576 L1417.24 9.54393 Z" fill="#000000" fill-rule="nonzero" fill-opacity="1" /><path clip-path="url(#clip200)" d="M1503.24 14.0809 L1503.24 22.0612 Q1498.58 19.8332 1494.45 18.7395 Q1490.32 17.6457 1486.47 17.6457 Q1479.79 17.6457 1476.14 20.2383 Q1472.53 22.8309 1472.53 27.611 Q1472.53 31.6214 1474.92 33.6873 Q1477.36 35.7128 1484.08 36.9686 L1489.02 37.9813 Q1498.18 39.7232 1502.51 44.1387 Q1506.89 48.5136 1506.89 55.8863 Q1506.89 64.6767 1500.97 69.2137 Q1495.1 73.7508 1483.72 73.7508 Q1479.42 73.7508 1474.56 72.7785 Q1469.74 71.8063 1464.55 69.9024 L1464.55 61.4765 Q1469.54 64.2716 1474.32 65.6895 Q1479.1 67.1073 1483.72 67.1073 Q1490.72 67.1073 1494.53 64.3527 Q1498.34 61.598 1498.34 56.4939 Q1498.34 52.0379 1495.58 49.5264 Q1492.87 47.0148 1486.63 45.759 L1481.65 44.7868 Q1472.49 42.9639 1468.4 39.075 Q1464.31 35.1862 1464.31 28.2591 Q1464.31 20.2383 1469.94 15.6203 Q1475.61 11.0023 1485.54 11.0023 Q1489.79 11.0023 1494.21 11.7719 Q1498.62 12.5416 1503.24 14.0809 Z" fill="#000000" fill-rule="nonzero" fill-opacity="1" /><path clip-path="url(#clip200)" d="M1519.32 27.2059 L1526.78 27.2059 L1526.78 72.576 L1519.32 72.576 L1519.32 27.2059 M1519.32 9.54393 L1526.78 9.54393 L1526.78 18.9825 L1519.32 18.9825 L1519.32 9.54393 Z" fill="#000000" fill-rule="nonzero" fill-opacity="1" /><path clip-path="url(#clip200)" d="M1577.7 35.9153 Q1580.49 30.8922 1584.38 28.5022 Q1588.27 26.1121 1593.54 26.1121 Q1600.62 26.1121 1604.47 31.0947 Q1608.32 36.0368 1608.32 45.1919 L1608.32 72.576 L1600.83 72.576 L1600.83 45.4349 Q1600.83 38.913 1598.52 35.7533 Q1596.21 32.5936 1591.47 32.5936 Q1585.68 32.5936 1582.31 36.4419 Q1578.95 40.2903 1578.95 46.9338 L1578.95 72.576 L1571.46 72.576 L1571.46 45.4349 Q1571.46 38.8725 1569.15 35.7533 Q1566.84 32.5936 1562.02 32.5936 Q1556.31 32.5936 1552.95 36.4824 Q1549.58 40.3308 1549.58 46.9338 L1549.58 72.576 L1542.09 72.576 L1542.09 27.2059 L1549.58 27.2059 L1549.58 34.2544 Q1552.13 30.082 1555.7 28.0971 Q1559.26 26.1121 1564.17 26.1121 Q1569.11 26.1121 1572.55 28.6237 Q1576.04 31.1352 1577.7 35.9153 Z" fill="#000000" fill-rule="nonzero" fill-opacity="1" /><path clip-path="url(#clip200)" d="M1630.4 65.7705 L1630.4 89.8329 L1622.9 89.8329 L1622.9 27.2059 L1630.4 27.2059 L1630.4 34.0924 Q1632.75 30.0415 1636.31 28.0971 Q1639.92 26.1121 1644.9 26.1121 Q1653.16 26.1121 1658.31 32.6746 Q1663.49 39.2371 1663.49 49.9314 Q1663.49 60.6258 1658.31 67.1883 Q1653.16 73.7508 1644.9 73.7508 Q1639.92 73.7508 1636.31 71.8063 Q1632.75 69.8214 1630.4 65.7705 M1655.76 49.9314 Q1655.76 41.7081 1652.35 37.0496 Q1648.99 32.3505 1643.08 32.3505 Q1637.16 32.3505 1633.76 37.0496 Q1630.4 41.7081 1630.4 49.9314 Q1630.4 58.1548 1633.76 62.8538 Q1637.16 67.5124 1643.08 67.5124 Q1648.99 67.5124 1652.35 62.8538 Q1655.76 58.1548 1655.76 49.9314 Z" fill="#000000" fill-rule="nonzero" fill-opacity="1" /><path clip-path="url(#clip200)" d="M1675.85 9.54393 L1683.3 9.54393 L1683.3 72.576 L1675.85 72.576 L1675.85 9.54393 Z" fill="#000000" fill-rule="nonzero" fill-opacity="1" /><path clip-path="url(#clip200)" d="M1737.71 48.0275 L1737.71 51.6733 L1703.44 51.6733 Q1703.92 59.3701 1708.05 63.421 Q1712.23 67.4314 1719.64 67.4314 Q1723.93 67.4314 1727.94 66.3781 Q1732 65.3249 1735.97 63.2184 L1735.97 70.267 Q1731.95 71.9684 1727.74 72.8596 Q1723.53 73.7508 1719.19 73.7508 Q1708.34 73.7508 1701.98 67.4314 Q1695.66 61.1119 1695.66 50.3365 Q1695.66 39.1965 1701.65 32.6746 Q1707.69 26.1121 1717.9 26.1121 Q1727.05 26.1121 1732.36 32.0264 Q1737.71 37.9003 1737.71 48.0275 M1730.25 45.84 Q1730.17 39.7232 1726.81 36.0774 Q1723.49 32.4315 1717.98 32.4315 Q1711.74 32.4315 1707.97 35.9558 Q1704.25 39.4801 1703.68 45.8805 L1730.25 45.84 Z" fill="#000000" fill-rule="nonzero" fill-opacity="1" /><circle clip-path="url(#clip202)" cx="353.408" cy="1124.58" r="14.4" fill="#009af9" fill-rule="evenodd" fill-opacity="1" stroke="#000000" stroke-opacity="1" stroke-width="3.2"/>
<circle clip-path="url(#clip202)" cx="2226.33" cy="236.61" r="14.4" fill="#009af9" fill-rule="evenodd" fill-opacity="1" stroke="#000000" stroke-opacity="1" stroke-width="3.2"/>
<circle clip-path="url(#clip202)" cx="1523.99" cy="594.806" r="14.4" fill="#009af9" fill-rule="evenodd" fill-opacity="1" stroke="#000000" stroke-opacity="1" stroke-width="3.2"/>
<circle clip-path="url(#clip202)" cx="1970.93" cy="458.505" r="14.4" fill="#009af9" fill-rule="evenodd" fill-opacity="1" stroke="#000000" stroke-opacity="1" stroke-width="3.2"/>
<circle clip-path="url(#clip202)" cx="1651.69" cy="501.606" r="14.4" fill="#009af9" fill-rule="evenodd" fill-opacity="1" stroke="#000000" stroke-opacity="1" stroke-width="3.2"/>
<circle clip-path="url(#clip202)" cx="1460.14" cy="520.028" r="14.4" fill="#009af9" fill-rule="evenodd" fill-opacity="1" stroke="#000000" stroke-opacity="1" stroke-width="3.2"/>
<circle clip-path="url(#clip202)" cx="1332.44" cy="538.991" r="14.4" fill="#009af9" fill-rule="evenodd" fill-opacity="1" stroke="#000000" stroke-opacity="1" stroke-width="3.2"/>
<circle clip-path="url(#clip202)" cx="1289.87" cy="821.089" r="14.4" fill="#009af9" fill-rule="evenodd" fill-opacity="1" stroke="#000000" stroke-opacity="1" stroke-width="3.2"/>
<circle clip-path="url(#clip202)" cx="1545.27" cy="584.888" r="14.4" fill="#009af9" fill-rule="evenodd" fill-opacity="1" stroke="#000000" stroke-opacity="1" stroke-width="3.2"/>
<circle clip-path="url(#clip202)" cx="353.408" cy="1374.37" r="14.4" fill="#009af9" fill-rule="evenodd" fill-opacity="1" stroke="#000000" stroke-opacity="1" stroke-width="3.2"/>
<circle clip-path="url(#clip202)" cx="1375" cy="826.619" r="14.4" fill="#009af9" fill-rule="evenodd" fill-opacity="1" stroke="#000000" stroke-opacity="1" stroke-width="3.2"/>
<circle clip-path="url(#clip202)" cx="1758.1" cy="362.605" r="14.4" fill="#009af9" fill-rule="evenodd" fill-opacity="1" stroke="#000000" stroke-opacity="1" stroke-width="3.2"/>
<circle clip-path="url(#clip202)" cx="630.09" cy="1127.98" r="14.4" fill="#009af9" fill-rule="evenodd" fill-opacity="1" stroke="#000000" stroke-opacity="1" stroke-width="3.2"/>
<circle clip-path="url(#clip202)" cx="1502.7" cy="669.669" r="14.4" fill="#009af9" fill-rule="evenodd" fill-opacity="1" stroke="#000000" stroke-opacity="1" stroke-width="3.2"/>
<circle clip-path="url(#clip202)" cx="608.807" cy="1062.22" r="14.4" fill="#009af9" fill-rule="evenodd" fill-opacity="1" stroke="#000000" stroke-opacity="1" stroke-width="3.2"/>
<circle clip-path="url(#clip202)" cx="715.223" cy="1135.96" r="14.4" fill="#009af9" fill-rule="evenodd" fill-opacity="1" stroke="#000000" stroke-opacity="1" stroke-width="3.2"/>
<circle clip-path="url(#clip202)" cx="353.408" cy="1150.75" r="14.4" fill="#009af9" fill-rule="evenodd" fill-opacity="1" stroke="#000000" stroke-opacity="1" stroke-width="3.2"/>
<circle clip-path="url(#clip202)" cx="1204.74" cy="713.871" r="14.4" fill="#009af9" fill-rule="evenodd" fill-opacity="1" stroke="#000000" stroke-opacity="1" stroke-width="3.2"/>
<circle clip-path="url(#clip202)" cx="1779.39" cy="527.569" r="14.4" fill="#009af9" fill-rule="evenodd" fill-opacity="1" stroke="#000000" stroke-opacity="1" stroke-width="3.2"/>
<circle clip-path="url(#clip202)" cx="438.541" cy="1205.48" r="14.4" fill="#009af9" fill-rule="evenodd" fill-opacity="1" stroke="#000000" stroke-opacity="1" stroke-width="3.2"/>
<circle clip-path="url(#clip202)" cx="2098.63" cy="413.352" r="14.4" fill="#009af9" fill-rule="evenodd" fill-opacity="1" stroke="#000000" stroke-opacity="1" stroke-width="3.2"/>
<circle clip-path="url(#clip202)" cx="310.842" cy="1321.47" r="14.4" fill="#009af9" fill-rule="evenodd" fill-opacity="1" stroke="#000000" stroke-opacity="1" stroke-width="3.2"/>
<circle clip-path="url(#clip202)" cx="459.825" cy="1088.22" r="14.4" fill="#009af9" fill-rule="evenodd" fill-opacity="1" stroke="#000000" stroke-opacity="1" stroke-width="3.2"/>
<circle clip-path="url(#clip202)" cx="353.408" cy="1133.13" r="14.4" fill="#009af9" fill-rule="evenodd" fill-opacity="1" stroke="#000000" stroke-opacity="1" stroke-width="3.2"/>
<circle clip-path="url(#clip202)" cx="1438.85" cy="655.35" r="14.4" fill="#009af9" fill-rule="evenodd" fill-opacity="1" stroke="#000000" stroke-opacity="1" stroke-width="3.2"/>
<circle clip-path="url(#clip202)" cx="374.692" cy="1147.42" r="14.4" fill="#009af9" fill-rule="evenodd" fill-opacity="1" stroke="#000000" stroke-opacity="1" stroke-width="3.2"/>
<circle clip-path="url(#clip202)" cx="715.223" cy="1239.98" r="14.4" fill="#009af9" fill-rule="evenodd" fill-opacity="1" stroke="#000000" stroke-opacity="1" stroke-width="3.2"/>
<circle clip-path="url(#clip202)" cx="2056.07" cy="396.069" r="14.4" fill="#009af9" fill-rule="evenodd" fill-opacity="1" stroke="#000000" stroke-opacity="1" stroke-width="3.2"/>
<circle clip-path="url(#clip202)" cx="1481.42" cy="868.057" r="14.4" fill="#009af9" fill-rule="evenodd" fill-opacity="1" stroke="#000000" stroke-opacity="1" stroke-width="3.2"/>
<circle clip-path="url(#clip202)" cx="1651.69" cy="540.239" r="14.4" fill="#009af9" fill-rule="evenodd" fill-opacity="1" stroke="#000000" stroke-opacity="1" stroke-width="3.2"/>
<circle clip-path="url(#clip202)" cx="715.223" cy="1191.87" r="14.4" fill="#009af9" fill-rule="evenodd" fill-opacity="1" stroke="#000000" stroke-opacity="1" stroke-width="3.2"/>
<circle clip-path="url(#clip202)" cx="1119.6" cy="919.906" r="14.4" fill="#009af9" fill-rule="evenodd" fill-opacity="1" stroke="#000000" stroke-opacity="1" stroke-width="3.2"/>
<circle clip-path="url(#clip202)" cx="395.975" cy="1219.36" r="14.4" fill="#009af9" fill-rule="evenodd" fill-opacity="1" stroke="#000000" stroke-opacity="1" stroke-width="3.2"/>
<circle clip-path="url(#clip202)" cx="715.223" cy="1201.83" r="14.4" fill="#009af9" fill-rule="evenodd" fill-opacity="1" stroke="#000000" stroke-opacity="1" stroke-width="3.2"/>
<circle clip-path="url(#clip202)" cx="2247.62" cy="346.417" r="14.4" fill="#009af9" fill-rule="evenodd" fill-opacity="1" stroke="#000000" stroke-opacity="1" stroke-width="3.2"/>
<circle clip-path="url(#clip202)" cx="1353.72" cy="949.637" r="14.4" fill="#009af9" fill-rule="evenodd" fill-opacity="1" stroke="#000000" stroke-opacity="1" stroke-width="3.2"/>
<circle clip-path="url(#clip202)" cx="1715.54" cy="566.344" r="14.4" fill="#009af9" fill-rule="evenodd" fill-opacity="1" stroke="#000000" stroke-opacity="1" stroke-width="3.2"/>
<circle clip-path="url(#clip202)" cx="1460.14" cy="793.697" r="14.4" fill="#009af9" fill-rule="evenodd" fill-opacity="1" stroke="#000000" stroke-opacity="1" stroke-width="3.2"/>
<circle clip-path="url(#clip202)" cx="225.709" cy="1312.62" r="14.4" fill="#009af9" fill-rule="evenodd" fill-opacity="1" stroke="#000000" stroke-opacity="1" stroke-width="3.2"/>
<circle clip-path="url(#clip202)" cx="438.541" cy="1383.06" r="14.4" fill="#009af9" fill-rule="evenodd" fill-opacity="1" stroke="#000000" stroke-opacity="1" stroke-width="3.2"/>
<circle clip-path="url(#clip202)" cx="757.79" cy="1045.36" r="14.4" fill="#009af9" fill-rule="evenodd" fill-opacity="1" stroke="#000000" stroke-opacity="1" stroke-width="3.2"/>
<circle clip-path="url(#clip202)" cx="1077.04" cy="847.332" r="14.4" fill="#009af9" fill-rule="evenodd" fill-opacity="1" stroke="#000000" stroke-opacity="1" stroke-width="3.2"/>
<circle clip-path="url(#clip202)" cx="1183.45" cy="737.613" r="14.4" fill="#009af9" fill-rule="evenodd" fill-opacity="1" stroke="#000000" stroke-opacity="1" stroke-width="3.2"/>
<circle clip-path="url(#clip202)" cx="1268.59" cy="825.493" r="14.4" fill="#009af9" fill-rule="evenodd" fill-opacity="1" stroke="#000000" stroke-opacity="1" stroke-width="3.2"/>
<circle clip-path="url(#clip202)" cx="1779.39" cy="606.767" r="14.4" fill="#009af9" fill-rule="evenodd" fill-opacity="1" stroke="#000000" stroke-opacity="1" stroke-width="3.2"/>
<circle clip-path="url(#clip202)" cx="1332.44" cy="562.384" r="14.4" fill="#009af9" fill-rule="evenodd" fill-opacity="1" stroke="#000000" stroke-opacity="1" stroke-width="3.2"/>
<circle clip-path="url(#clip202)" cx="2183.77" cy="491.35" r="14.4" fill="#009af9" fill-rule="evenodd" fill-opacity="1" stroke="#000000" stroke-opacity="1" stroke-width="3.2"/>
<circle clip-path="url(#clip202)" cx="1545.27" cy="728.817" r="14.4" fill="#009af9" fill-rule="evenodd" fill-opacity="1" stroke="#000000" stroke-opacity="1" stroke-width="3.2"/>
<circle clip-path="url(#clip202)" cx="587.524" cy="1125.04" r="14.4" fill="#009af9" fill-rule="evenodd" fill-opacity="1" stroke="#000000" stroke-opacity="1" stroke-width="3.2"/>
<circle clip-path="url(#clip202)" cx="2205.05" cy="615.23" r="14.4" fill="#009af9" fill-rule="evenodd" fill-opacity="1" stroke="#000000" stroke-opacity="1" stroke-width="3.2"/>
<circle clip-path="url(#clip202)" cx="1758.1" cy="553.581" r="14.4" fill="#009af9" fill-rule="evenodd" fill-opacity="1" stroke="#000000" stroke-opacity="1" stroke-width="3.2"/>
<circle clip-path="url(#clip202)" cx="1077.04" cy="1072.75" r="14.4" fill="#009af9" fill-rule="evenodd" fill-opacity="1" stroke="#000000" stroke-opacity="1" stroke-width="3.2"/>
<circle clip-path="url(#clip202)" cx="459.825" cy="1106.79" r="14.4" fill="#009af9" fill-rule="evenodd" fill-opacity="1" stroke="#000000" stroke-opacity="1" stroke-width="3.2"/>
<circle clip-path="url(#clip202)" cx="1907.08" cy="506.583" r="14.4" fill="#009af9" fill-rule="evenodd" fill-opacity="1" stroke="#000000" stroke-opacity="1" stroke-width="3.2"/>
<circle clip-path="url(#clip202)" cx="672.657" cy="1126" r="14.4" fill="#009af9" fill-rule="evenodd" fill-opacity="1" stroke="#000000" stroke-opacity="1" stroke-width="3.2"/>
<circle clip-path="url(#clip202)" cx="332.125" cy="1137.25" r="14.4" fill="#009af9" fill-rule="evenodd" fill-opacity="1" stroke="#000000" stroke-opacity="1" stroke-width="3.2"/>
<circle clip-path="url(#clip202)" cx="246.992" cy="1194.65" r="14.4" fill="#009af9" fill-rule="evenodd" fill-opacity="1" stroke="#000000" stroke-opacity="1" stroke-width="3.2"/>
<circle clip-path="url(#clip202)" cx="1715.54" cy="573.41" r="14.4" fill="#009af9" fill-rule="evenodd" fill-opacity="1" stroke="#000000" stroke-opacity="1" stroke-width="3.2"/>
<circle clip-path="url(#clip202)" cx="1992.22" cy="482.617" r="14.4" fill="#009af9" fill-rule="evenodd" fill-opacity="1" stroke="#000000" stroke-opacity="1" stroke-width="3.2"/>
<circle clip-path="url(#clip202)" cx="1311.15" cy="620.926" r="14.4" fill="#009af9" fill-rule="evenodd" fill-opacity="1" stroke="#000000" stroke-opacity="1" stroke-width="3.2"/>
<circle clip-path="url(#clip202)" cx="587.524" cy="1257.84" r="14.4" fill="#009af9" fill-rule="evenodd" fill-opacity="1" stroke="#000000" stroke-opacity="1" stroke-width="3.2"/>
<circle clip-path="url(#clip202)" cx="481.108" cy="1318.82" r="14.4" fill="#009af9" fill-rule="evenodd" fill-opacity="1" stroke="#000000" stroke-opacity="1" stroke-width="3.2"/>
<circle clip-path="url(#clip202)" cx="1523.99" cy="577.775" r="14.4" fill="#009af9" fill-rule="evenodd" fill-opacity="1" stroke="#000000" stroke-opacity="1" stroke-width="3.2"/>
<circle clip-path="url(#clip202)" cx="736.507" cy="950.624" r="14.4" fill="#009af9" fill-rule="evenodd" fill-opacity="1" stroke="#000000" stroke-opacity="1" stroke-width="3.2"/>
<circle clip-path="url(#clip202)" cx="544.958" cy="1057.33" r="14.4" fill="#009af9" fill-rule="evenodd" fill-opacity="1" stroke="#000000" stroke-opacity="1" stroke-width="3.2"/>
<circle clip-path="url(#clip202)" cx="2290.18" cy="281.383" r="14.4" fill="#009af9" fill-rule="evenodd" fill-opacity="1" stroke="#000000" stroke-opacity="1" stroke-width="3.2"/>
<circle clip-path="url(#clip202)" cx="2247.62" cy="181.568" r="14.4" fill="#009af9" fill-rule="evenodd" fill-opacity="1" stroke="#000000" stroke-opacity="1" stroke-width="3.2"/>
<circle clip-path="url(#clip202)" cx="417.258" cy="1360.59" r="14.4" fill="#009af9" fill-rule="evenodd" fill-opacity="1" stroke="#000000" stroke-opacity="1" stroke-width="3.2"/>
<circle clip-path="url(#clip202)" cx="1587.84" cy="860.436" r="14.4" fill="#009af9" fill-rule="evenodd" fill-opacity="1" stroke="#000000" stroke-opacity="1" stroke-width="3.2"/>
<circle clip-path="url(#clip202)" cx="2013.5" cy="435.318" r="14.4" fill="#009af9" fill-rule="evenodd" fill-opacity="1" stroke="#000000" stroke-opacity="1" stroke-width="3.2"/>
<circle clip-path="url(#clip202)" cx="651.374" cy="1178.62" r="14.4" fill="#009af9" fill-rule="evenodd" fill-opacity="1" stroke="#000000" stroke-opacity="1" stroke-width="3.2"/>
<circle clip-path="url(#clip202)" cx="289.559" cy="1385.29" r="14.4" fill="#009af9" fill-rule="evenodd" fill-opacity="1" stroke="#000000" stroke-opacity="1" stroke-width="3.2"/>
<circle clip-path="url(#clip202)" cx="1907.08" cy="594.748" r="14.4" fill="#009af9" fill-rule="evenodd" fill-opacity="1" stroke="#000000" stroke-opacity="1" stroke-width="3.2"/>
<circle clip-path="url(#clip202)" cx="757.79" cy="1050.31" r="14.4" fill="#009af9" fill-rule="evenodd" fill-opacity="1" stroke="#000000" stroke-opacity="1" stroke-width="3.2"/>
<circle clip-path="url(#clip202)" cx="2226.33" cy="517.884" r="14.4" fill="#009af9" fill-rule="evenodd" fill-opacity="1" stroke="#000000" stroke-opacity="1" stroke-width="3.2"/>
<circle clip-path="url(#clip202)" cx="502.391" cy="1018.04" r="14.4" fill="#009af9" fill-rule="evenodd" fill-opacity="1" stroke="#000000" stroke-opacity="1" stroke-width="3.2"/>
<circle clip-path="url(#clip202)" cx="1183.45" cy="838.505" r="14.4" fill="#009af9" fill-rule="evenodd" fill-opacity="1" stroke="#000000" stroke-opacity="1" stroke-width="3.2"/>
<circle clip-path="url(#clip202)" cx="2226.33" cy="340.902" r="14.4" fill="#009af9" fill-rule="evenodd" fill-opacity="1" stroke="#000000" stroke-opacity="1" stroke-width="3.2"/>
<circle clip-path="url(#clip202)" cx="757.79" cy="1176.79" r="14.4" fill="#009af9" fill-rule="evenodd" fill-opacity="1" stroke="#000000" stroke-opacity="1" stroke-width="3.2"/>
<circle clip-path="url(#clip202)" cx="1502.7" cy="667.08" r="14.4" fill="#009af9" fill-rule="evenodd" fill-opacity="1" stroke="#000000" stroke-opacity="1" stroke-width="3.2"/>
<circle clip-path="url(#clip202)" cx="1332.44" cy="768.509" r="14.4" fill="#009af9" fill-rule="evenodd" fill-opacity="1" stroke="#000000" stroke-opacity="1" stroke-width="3.2"/>
<circle clip-path="url(#clip202)" cx="1843.24" cy="454.815" r="14.4" fill="#009af9" fill-rule="evenodd" fill-opacity="1" stroke="#000000" stroke-opacity="1" stroke-width="3.2"/>
<circle clip-path="url(#clip202)" cx="1907.08" cy="485.703" r="14.4" fill="#009af9" fill-rule="evenodd" fill-opacity="1" stroke="#000000" stroke-opacity="1" stroke-width="3.2"/>
<circle clip-path="url(#clip202)" cx="353.408" cy="1308.41" r="14.4" fill="#009af9" fill-rule="evenodd" fill-opacity="1" stroke="#000000" stroke-opacity="1" stroke-width="3.2"/>
<circle clip-path="url(#clip202)" cx="2183.77" cy="162.047" r="14.4" fill="#009af9" fill-rule="evenodd" fill-opacity="1" stroke="#000000" stroke-opacity="1" stroke-width="3.2"/>
<circle clip-path="url(#clip202)" cx="1694.25" cy="457.946" r="14.4" fill="#009af9" fill-rule="evenodd" fill-opacity="1" stroke="#000000" stroke-opacity="1" stroke-width="3.2"/>
<circle clip-path="url(#clip202)" cx="587.524" cy="1212.63" r="14.4" fill="#009af9" fill-rule="evenodd" fill-opacity="1" stroke="#000000" stroke-opacity="1" stroke-width="3.2"/>
<circle clip-path="url(#clip202)" cx="1098.32" cy="976.206" r="14.4" fill="#009af9" fill-rule="evenodd" fill-opacity="1" stroke="#000000" stroke-opacity="1" stroke-width="3.2"/>
<circle clip-path="url(#clip202)" cx="821.64" cy="935.261" r="14.4" fill="#009af9" fill-rule="evenodd" fill-opacity="1" stroke="#000000" stroke-opacity="1" stroke-width="3.2"/>
<circle clip-path="url(#clip202)" cx="544.958" cy="974.594" r="14.4" fill="#009af9" fill-rule="evenodd" fill-opacity="1" stroke="#000000" stroke-opacity="1" stroke-width="3.2"/>
<circle clip-path="url(#clip202)" cx="1247.3" cy="781.441" r="14.4" fill="#009af9" fill-rule="evenodd" fill-opacity="1" stroke="#000000" stroke-opacity="1" stroke-width="3.2"/>
<circle clip-path="url(#clip202)" cx="523.674" cy="1031.36" r="14.4" fill="#009af9" fill-rule="evenodd" fill-opacity="1" stroke="#000000" stroke-opacity="1" stroke-width="3.2"/>
<circle clip-path="url(#clip202)" cx="757.79" cy="1086.74" r="14.4" fill="#009af9" fill-rule="evenodd" fill-opacity="1" stroke="#000000" stroke-opacity="1" stroke-width="3.2"/>
<circle clip-path="url(#clip202)" cx="1672.97" cy="643.303" r="14.4" fill="#009af9" fill-rule="evenodd" fill-opacity="1" stroke="#000000" stroke-opacity="1" stroke-width="3.2"/>
<circle clip-path="url(#clip202)" cx="1204.74" cy="666.425" r="14.4" fill="#009af9" fill-rule="evenodd" fill-opacity="1" stroke="#000000" stroke-opacity="1" stroke-width="3.2"/>
<circle clip-path="url(#clip202)" cx="630.09" cy="1145.45" r="14.4" fill="#009af9" fill-rule="evenodd" fill-opacity="1" stroke="#000000" stroke-opacity="1" stroke-width="3.2"/>
<circle clip-path="url(#clip202)" cx="353.408" cy="1172.33" r="14.4" fill="#009af9" fill-rule="evenodd" fill-opacity="1" stroke="#000000" stroke-opacity="1" stroke-width="3.2"/>
<circle clip-path="url(#clip202)" cx="1353.72" cy="777.804" r="14.4" fill="#009af9" fill-rule="evenodd" fill-opacity="1" stroke="#000000" stroke-opacity="1" stroke-width="3.2"/>
<circle clip-path="url(#clip202)" cx="310.842" cy="1202.87" r="14.4" fill="#009af9" fill-rule="evenodd" fill-opacity="1" stroke="#000000" stroke-opacity="1" stroke-width="3.2"/>
<circle clip-path="url(#clip202)" cx="1353.72" cy="837.691" r="14.4" fill="#009af9" fill-rule="evenodd" fill-opacity="1" stroke="#000000" stroke-opacity="1" stroke-width="3.2"/>
<circle clip-path="url(#clip202)" cx="1651.69" cy="612.008" r="14.4" fill="#009af9" fill-rule="evenodd" fill-opacity="1" stroke="#000000" stroke-opacity="1" stroke-width="3.2"/>
<circle clip-path="url(#clip202)" cx="1013.19" cy="932.824" r="14.4" fill="#009af9" fill-rule="evenodd" fill-opacity="1" stroke="#000000" stroke-opacity="1" stroke-width="3.2"/>
<circle clip-path="url(#clip202)" cx="1460.14" cy="661.077" r="14.4" fill="#009af9" fill-rule="evenodd" fill-opacity="1" stroke="#000000" stroke-opacity="1" stroke-width="3.2"/>
<circle clip-path="url(#clip202)" cx="1460.14" cy="606.072" r="14.4" fill="#009af9" fill-rule="evenodd" fill-opacity="1" stroke="#000000" stroke-opacity="1" stroke-width="3.2"/>
<circle clip-path="url(#clip202)" cx="587.524" cy="1042.65" r="14.4" fill="#009af9" fill-rule="evenodd" fill-opacity="1" stroke="#000000" stroke-opacity="1" stroke-width="3.2"/>
<circle clip-path="url(#clip202)" cx="1055.76" cy="853.097" r="14.4" fill="#009af9" fill-rule="evenodd" fill-opacity="1" stroke="#000000" stroke-opacity="1" stroke-width="3.2"/>
<circle clip-path="url(#clip202)" cx="1821.95" cy="531.275" r="14.4" fill="#009af9" fill-rule="evenodd" fill-opacity="1" stroke="#000000" stroke-opacity="1" stroke-width="3.2"/>
<circle clip-path="url(#clip202)" cx="438.541" cy="1269.65" r="14.4" fill="#009af9" fill-rule="evenodd" fill-opacity="1" stroke="#000000" stroke-opacity="1" stroke-width="3.2"/>
<circle clip-path="url(#clip202)" cx="1715.54" cy="402.421" r="14.4" fill="#009af9" fill-rule="evenodd" fill-opacity="1" stroke="#000000" stroke-opacity="1" stroke-width="3.2"/>
<circle clip-path="url(#clip202)" cx="481.108" cy="1140" r="14.4" fill="#009af9" fill-rule="evenodd" fill-opacity="1" stroke="#000000" stroke-opacity="1" stroke-width="3.2"/>
<circle clip-path="url(#clip202)" cx="1736.82" cy="574.049" r="14.4" fill="#009af9" fill-rule="evenodd" fill-opacity="1" stroke="#000000" stroke-opacity="1" stroke-width="3.2"/>
<circle clip-path="url(#clip202)" cx="1566.55" cy="874.584" r="14.4" fill="#009af9" fill-rule="evenodd" fill-opacity="1" stroke="#000000" stroke-opacity="1" stroke-width="3.2"/>
<circle clip-path="url(#clip202)" cx="693.94" cy="1193.97" r="14.4" fill="#009af9" fill-rule="evenodd" fill-opacity="1" stroke="#000000" stroke-opacity="1" stroke-width="3.2"/>
<circle clip-path="url(#clip202)" cx="1609.12" cy="619.271" r="14.4" fill="#009af9" fill-rule="evenodd" fill-opacity="1" stroke="#000000" stroke-opacity="1" stroke-width="3.2"/>
<circle clip-path="url(#clip202)" cx="608.807" cy="1170.66" r="14.4" fill="#009af9" fill-rule="evenodd" fill-opacity="1" stroke="#000000" stroke-opacity="1" stroke-width="3.2"/>
<circle clip-path="url(#clip202)" cx="2098.63" cy="550.898" r="14.4" fill="#009af9" fill-rule="evenodd" fill-opacity="1" stroke="#000000" stroke-opacity="1" stroke-width="3.2"/>
<circle clip-path="url(#clip202)" cx="374.692" cy="1285.35" r="14.4" fill="#009af9" fill-rule="evenodd" fill-opacity="1" stroke="#000000" stroke-opacity="1" stroke-width="3.2"/>
<circle clip-path="url(#clip202)" cx="736.507" cy="1032.59" r="14.4" fill="#009af9" fill-rule="evenodd" fill-opacity="1" stroke="#000000" stroke-opacity="1" stroke-width="3.2"/>
<circle clip-path="url(#clip202)" cx="1800.67" cy="685.836" r="14.4" fill="#009af9" fill-rule="evenodd" fill-opacity="1" stroke="#000000" stroke-opacity="1" stroke-width="3.2"/>
<circle clip-path="url(#clip202)" cx="779.073" cy="952.724" r="14.4" fill="#009af9" fill-rule="evenodd" fill-opacity="1" stroke="#000000" stroke-opacity="1" stroke-width="3.2"/>
<circle clip-path="url(#clip202)" cx="204.426" cy="1447.87" r="14.4" fill="#009af9" fill-rule="evenodd" fill-opacity="1" stroke="#000000" stroke-opacity="1" stroke-width="3.2"/>
<circle clip-path="url(#clip202)" cx="2290.18" cy="548.276" r="14.4" fill="#009af9" fill-rule="evenodd" fill-opacity="1" stroke="#000000" stroke-opacity="1" stroke-width="3.2"/>
<circle clip-path="url(#clip202)" cx="204.426" cy="1353.13" r="14.4" fill="#009af9" fill-rule="evenodd" fill-opacity="1" stroke="#000000" stroke-opacity="1" stroke-width="3.2"/>
<circle clip-path="url(#clip202)" cx="1651.69" cy="667.298" r="14.4" fill="#009af9" fill-rule="evenodd" fill-opacity="1" stroke="#000000" stroke-opacity="1" stroke-width="3.2"/>
<circle clip-path="url(#clip202)" cx="353.408" cy="1201.06" r="14.4" fill="#009af9" fill-rule="evenodd" fill-opacity="1" stroke="#000000" stroke-opacity="1" stroke-width="3.2"/>
<circle clip-path="url(#clip202)" cx="289.559" cy="1310.33" r="14.4" fill="#009af9" fill-rule="evenodd" fill-opacity="1" stroke="#000000" stroke-opacity="1" stroke-width="3.2"/>
<circle clip-path="url(#clip202)" cx="1694.25" cy="698.835" r="14.4" fill="#009af9" fill-rule="evenodd" fill-opacity="1" stroke="#000000" stroke-opacity="1" stroke-width="3.2"/>
<circle clip-path="url(#clip202)" cx="651.374" cy="1060.78" r="14.4" fill="#009af9" fill-rule="evenodd" fill-opacity="1" stroke="#000000" stroke-opacity="1" stroke-width="3.2"/>
<circle clip-path="url(#clip202)" cx="1843.24" cy="574.508" r="14.4" fill="#009af9" fill-rule="evenodd" fill-opacity="1" stroke="#000000" stroke-opacity="1" stroke-width="3.2"/>
<circle clip-path="url(#clip202)" cx="1885.8" cy="630.271" r="14.4" fill="#009af9" fill-rule="evenodd" fill-opacity="1" stroke="#000000" stroke-opacity="1" stroke-width="3.2"/>
<circle clip-path="url(#clip202)" cx="481.108" cy="1172.99" r="14.4" fill="#009af9" fill-rule="evenodd" fill-opacity="1" stroke="#000000" stroke-opacity="1" stroke-width="3.2"/>
<circle clip-path="url(#clip202)" cx="1353.72" cy="812.067" r="14.4" fill="#009af9" fill-rule="evenodd" fill-opacity="1" stroke="#000000" stroke-opacity="1" stroke-width="3.2"/>
<circle clip-path="url(#clip202)" cx="1970.93" cy="459.096" r="14.4" fill="#009af9" fill-rule="evenodd" fill-opacity="1" stroke="#000000" stroke-opacity="1" stroke-width="3.2"/>
<circle clip-path="url(#clip202)" cx="1672.97" cy="600.112" r="14.4" fill="#009af9" fill-rule="evenodd" fill-opacity="1" stroke="#000000" stroke-opacity="1" stroke-width="3.2"/>
<circle clip-path="url(#clip202)" cx="2268.9" cy="284.48" r="14.4" fill="#009af9" fill-rule="evenodd" fill-opacity="1" stroke="#000000" stroke-opacity="1" stroke-width="3.2"/>
<circle clip-path="url(#clip202)" cx="1907.08" cy="493.732" r="14.4" fill="#009af9" fill-rule="evenodd" fill-opacity="1" stroke="#000000" stroke-opacity="1" stroke-width="3.2"/>
<circle clip-path="url(#clip202)" cx="1055.76" cy="1111.29" r="14.4" fill="#009af9" fill-rule="evenodd" fill-opacity="1" stroke="#000000" stroke-opacity="1" stroke-width="3.2"/>
<circle clip-path="url(#clip202)" cx="1183.45" cy="852.431" r="14.4" fill="#009af9" fill-rule="evenodd" fill-opacity="1" stroke="#000000" stroke-opacity="1" stroke-width="3.2"/>
<circle clip-path="url(#clip202)" cx="1396.29" cy="683.29" r="14.4" fill="#009af9" fill-rule="evenodd" fill-opacity="1" stroke="#000000" stroke-opacity="1" stroke-width="3.2"/>
<circle clip-path="url(#clip202)" cx="800.356" cy="1283.41" r="14.4" fill="#009af9" fill-rule="evenodd" fill-opacity="1" stroke="#000000" stroke-opacity="1" stroke-width="3.2"/>
<circle clip-path="url(#clip202)" cx="225.709" cy="1444.2" r="14.4" fill="#009af9" fill-rule="evenodd" fill-opacity="1" stroke="#000000" stroke-opacity="1" stroke-width="3.2"/>
<circle clip-path="url(#clip202)" cx="1460.14" cy="916.078" r="14.4" fill="#009af9" fill-rule="evenodd" fill-opacity="1" stroke="#000000" stroke-opacity="1" stroke-width="3.2"/>
<circle clip-path="url(#clip202)" cx="395.975" cy="1172.84" r="14.4" fill="#009af9" fill-rule="evenodd" fill-opacity="1" stroke="#000000" stroke-opacity="1" stroke-width="3.2"/>
<circle clip-path="url(#clip202)" cx="1013.19" cy="995.179" r="14.4" fill="#009af9" fill-rule="evenodd" fill-opacity="1" stroke="#000000" stroke-opacity="1" stroke-width="3.2"/>
<circle clip-path="url(#clip202)" cx="1800.67" cy="548.251" r="14.4" fill="#009af9" fill-rule="evenodd" fill-opacity="1" stroke="#000000" stroke-opacity="1" stroke-width="3.2"/>
<circle clip-path="url(#clip202)" cx="736.507" cy="970.204" r="14.4" fill="#009af9" fill-rule="evenodd" fill-opacity="1" stroke="#000000" stroke-opacity="1" stroke-width="3.2"/>
<circle clip-path="url(#clip202)" cx="864.206" cy="979.704" r="14.4" fill="#009af9" fill-rule="evenodd" fill-opacity="1" stroke="#000000" stroke-opacity="1" stroke-width="3.2"/>
<circle clip-path="url(#clip202)" cx="2183.77" cy="269.558" r="14.4" fill="#009af9" fill-rule="evenodd" fill-opacity="1" stroke="#000000" stroke-opacity="1" stroke-width="3.2"/>
<circle clip-path="url(#clip202)" cx="1821.95" cy="571.667" r="14.4" fill="#009af9" fill-rule="evenodd" fill-opacity="1" stroke="#000000" stroke-opacity="1" stroke-width="3.2"/>
<circle clip-path="url(#clip202)" cx="1077.04" cy="919.01" r="14.4" fill="#009af9" fill-rule="evenodd" fill-opacity="1" stroke="#000000" stroke-opacity="1" stroke-width="3.2"/>
<circle clip-path="url(#clip202)" cx="672.657" cy="1144.96" r="14.4" fill="#009af9" fill-rule="evenodd" fill-opacity="1" stroke="#000000" stroke-opacity="1" stroke-width="3.2"/>
<circle clip-path="url(#clip202)" cx="1460.14" cy="726.515" r="14.4" fill="#009af9" fill-rule="evenodd" fill-opacity="1" stroke="#000000" stroke-opacity="1" stroke-width="3.2"/>
<circle clip-path="url(#clip202)" cx="2098.63" cy="353.45" r="14.4" fill="#009af9" fill-rule="evenodd" fill-opacity="1" stroke="#000000" stroke-opacity="1" stroke-width="3.2"/>
<circle clip-path="url(#clip202)" cx="1992.22" cy="550.941" r="14.4" fill="#009af9" fill-rule="evenodd" fill-opacity="1" stroke="#000000" stroke-opacity="1" stroke-width="3.2"/>
<circle clip-path="url(#clip202)" cx="1226.02" cy="954.904" r="14.4" fill="#009af9" fill-rule="evenodd" fill-opacity="1" stroke="#000000" stroke-opacity="1" stroke-width="3.2"/>
<circle clip-path="url(#clip202)" cx="1353.72" cy="656.132" r="14.4" fill="#009af9" fill-rule="evenodd" fill-opacity="1" stroke="#000000" stroke-opacity="1" stroke-width="3.2"/>
<circle clip-path="url(#clip202)" cx="268.275" cy="1370.39" r="14.4" fill="#009af9" fill-rule="evenodd" fill-opacity="1" stroke="#000000" stroke-opacity="1" stroke-width="3.2"/>
<circle clip-path="url(#clip202)" cx="1885.8" cy="436.719" r="14.4" fill="#009af9" fill-rule="evenodd" fill-opacity="1" stroke="#000000" stroke-opacity="1" stroke-width="3.2"/>
<circle clip-path="url(#clip202)" cx="779.073" cy="756.298" r="14.4" fill="#009af9" fill-rule="evenodd" fill-opacity="1" stroke="#000000" stroke-opacity="1" stroke-width="3.2"/>
<circle clip-path="url(#clip202)" cx="928.056" cy="869.692" r="14.4" fill="#009af9" fill-rule="evenodd" fill-opacity="1" stroke="#000000" stroke-opacity="1" stroke-width="3.2"/>
<circle clip-path="url(#clip202)" cx="1375" cy="706.438" r="14.4" fill="#009af9" fill-rule="evenodd" fill-opacity="1" stroke="#000000" stroke-opacity="1" stroke-width="3.2"/>
<circle clip-path="url(#clip202)" cx="885.489" cy="989.462" r="14.4" fill="#009af9" fill-rule="evenodd" fill-opacity="1" stroke="#000000" stroke-opacity="1" stroke-width="3.2"/>
<circle clip-path="url(#clip202)" cx="1907.08" cy="558.939" r="14.4" fill="#009af9" fill-rule="evenodd" fill-opacity="1" stroke="#000000" stroke-opacity="1" stroke-width="3.2"/>
<circle clip-path="url(#clip202)" cx="1332.44" cy="881.806" r="14.4" fill="#009af9" fill-rule="evenodd" fill-opacity="1" stroke="#000000" stroke-opacity="1" stroke-width="3.2"/>
<circle clip-path="url(#clip202)" cx="332.125" cy="1340.76" r="14.4" fill="#009af9" fill-rule="evenodd" fill-opacity="1" stroke="#000000" stroke-opacity="1" stroke-width="3.2"/>
<circle clip-path="url(#clip202)" cx="2162.48" cy="362.161" r="14.4" fill="#009af9" fill-rule="evenodd" fill-opacity="1" stroke="#000000" stroke-opacity="1" stroke-width="3.2"/>
<circle clip-path="url(#clip202)" cx="757.79" cy="1037.69" r="14.4" fill="#009af9" fill-rule="evenodd" fill-opacity="1" stroke="#000000" stroke-opacity="1" stroke-width="3.2"/>
<circle clip-path="url(#clip202)" cx="1758.1" cy="551.247" r="14.4" fill="#009af9" fill-rule="evenodd" fill-opacity="1" stroke="#000000" stroke-opacity="1" stroke-width="3.2"/>
<circle clip-path="url(#clip202)" cx="566.241" cy="1087.01" r="14.4" fill="#009af9" fill-rule="evenodd" fill-opacity="1" stroke="#000000" stroke-opacity="1" stroke-width="3.2"/>
<circle clip-path="url(#clip202)" cx="1736.82" cy="640.656" r="14.4" fill="#009af9" fill-rule="evenodd" fill-opacity="1" stroke="#000000" stroke-opacity="1" stroke-width="3.2"/>
<circle clip-path="url(#clip202)" cx="1502.7" cy="655.489" r="14.4" fill="#009af9" fill-rule="evenodd" fill-opacity="1" stroke="#000000" stroke-opacity="1" stroke-width="3.2"/>
<circle clip-path="url(#clip202)" cx="1481.42" cy="801.668" r="14.4" fill="#009af9" fill-rule="evenodd" fill-opacity="1" stroke="#000000" stroke-opacity="1" stroke-width="3.2"/>
<circle clip-path="url(#clip202)" cx="1183.45" cy="985.455" r="14.4" fill="#009af9" fill-rule="evenodd" fill-opacity="1" stroke="#000000" stroke-opacity="1" stroke-width="3.2"/>
<circle clip-path="url(#clip202)" cx="1800.67" cy="597.614" r="14.4" fill="#009af9" fill-rule="evenodd" fill-opacity="1" stroke="#000000" stroke-opacity="1" stroke-width="3.2"/>
<circle clip-path="url(#clip202)" cx="1077.04" cy="1092.37" r="14.4" fill="#009af9" fill-rule="evenodd" fill-opacity="1" stroke="#000000" stroke-opacity="1" stroke-width="3.2"/>
<circle clip-path="url(#clip202)" cx="1587.84" cy="615.143" r="14.4" fill="#009af9" fill-rule="evenodd" fill-opacity="1" stroke="#000000" stroke-opacity="1" stroke-width="3.2"/>
<circle clip-path="url(#clip202)" cx="1013.19" cy="943.796" r="14.4" fill="#009af9" fill-rule="evenodd" fill-opacity="1" stroke="#000000" stroke-opacity="1" stroke-width="3.2"/>
<circle clip-path="url(#clip202)" cx="2247.62" cy="247.371" r="14.4" fill="#009af9" fill-rule="evenodd" fill-opacity="1" stroke="#000000" stroke-opacity="1" stroke-width="3.2"/>
<circle clip-path="url(#clip202)" cx="502.391" cy="1033.12" r="14.4" fill="#009af9" fill-rule="evenodd" fill-opacity="1" stroke="#000000" stroke-opacity="1" stroke-width="3.2"/>
<circle clip-path="url(#clip202)" cx="757.79" cy="1060.62" r="14.4" fill="#009af9" fill-rule="evenodd" fill-opacity="1" stroke="#000000" stroke-opacity="1" stroke-width="3.2"/>
<circle clip-path="url(#clip202)" cx="885.489" cy="977.874" r="14.4" fill="#009af9" fill-rule="evenodd" fill-opacity="1" stroke="#000000" stroke-opacity="1" stroke-width="3.2"/>
<circle clip-path="url(#clip202)" cx="2247.62" cy="346.205" r="14.4" fill="#009af9" fill-rule="evenodd" fill-opacity="1" stroke="#000000" stroke-opacity="1" stroke-width="3.2"/>
<circle clip-path="url(#clip202)" cx="2119.92" cy="591.763" r="14.4" fill="#009af9" fill-rule="evenodd" fill-opacity="1" stroke="#000000" stroke-opacity="1" stroke-width="3.2"/>
<circle clip-path="url(#clip202)" cx="715.223" cy="1041.22" r="14.4" fill="#009af9" fill-rule="evenodd" fill-opacity="1" stroke="#000000" stroke-opacity="1" stroke-width="3.2"/>
<circle clip-path="url(#clip202)" cx="651.374" cy="1052.52" r="14.4" fill="#009af9" fill-rule="evenodd" fill-opacity="1" stroke="#000000" stroke-opacity="1" stroke-width="3.2"/>
<circle clip-path="url(#clip202)" cx="1353.72" cy="730.612" r="14.4" fill="#009af9" fill-rule="evenodd" fill-opacity="1" stroke="#000000" stroke-opacity="1" stroke-width="3.2"/>
<circle clip-path="url(#clip202)" cx="1545.27" cy="647.72" r="14.4" fill="#009af9" fill-rule="evenodd" fill-opacity="1" stroke="#000000" stroke-opacity="1" stroke-width="3.2"/>
<circle clip-path="url(#clip202)" cx="1034.47" cy="961.553" r="14.4" fill="#009af9" fill-rule="evenodd" fill-opacity="1" stroke="#000000" stroke-opacity="1" stroke-width="3.2"/>
<circle clip-path="url(#clip202)" cx="2183.77" cy="502.97" r="14.4" fill="#009af9" fill-rule="evenodd" fill-opacity="1" stroke="#000000" stroke-opacity="1" stroke-width="3.2"/>
<circle clip-path="url(#clip202)" cx="459.825" cy="1284.8" r="14.4" fill="#009af9" fill-rule="evenodd" fill-opacity="1" stroke="#000000" stroke-opacity="1" stroke-width="3.2"/>
<circle clip-path="url(#clip202)" cx="1587.84" cy="799.751" r="14.4" fill="#009af9" fill-rule="evenodd" fill-opacity="1" stroke="#000000" stroke-opacity="1" stroke-width="3.2"/>
<circle clip-path="url(#clip202)" cx="1311.15" cy="618.199" r="14.4" fill="#009af9" fill-rule="evenodd" fill-opacity="1" stroke="#000000" stroke-opacity="1" stroke-width="3.2"/>
<circle clip-path="url(#clip202)" cx="1481.42" cy="634.884" r="14.4" fill="#009af9" fill-rule="evenodd" fill-opacity="1" stroke="#000000" stroke-opacity="1" stroke-width="3.2"/>
<circle clip-path="url(#clip202)" cx="1247.3" cy="890.819" r="14.4" fill="#009af9" fill-rule="evenodd" fill-opacity="1" stroke="#000000" stroke-opacity="1" stroke-width="3.2"/>
<circle clip-path="url(#clip202)" cx="672.657" cy="1122.88" r="14.4" fill="#009af9" fill-rule="evenodd" fill-opacity="1" stroke="#000000" stroke-opacity="1" stroke-width="3.2"/>
<circle clip-path="url(#clip202)" cx="374.692" cy="1320.26" r="14.4" fill="#009af9" fill-rule="evenodd" fill-opacity="1" stroke="#000000" stroke-opacity="1" stroke-width="3.2"/>
<circle clip-path="url(#clip202)" cx="1587.84" cy="507.913" r="14.4" fill="#009af9" fill-rule="evenodd" fill-opacity="1" stroke="#000000" stroke-opacity="1" stroke-width="3.2"/>
<circle clip-path="url(#clip202)" cx="1013.19" cy="860.702" r="14.4" fill="#009af9" fill-rule="evenodd" fill-opacity="1" stroke="#000000" stroke-opacity="1" stroke-width="3.2"/>
<circle clip-path="url(#clip202)" cx="1098.32" cy="786.217" r="14.4" fill="#009af9" fill-rule="evenodd" fill-opacity="1" stroke="#000000" stroke-opacity="1" stroke-width="3.2"/>
<circle clip-path="url(#clip202)" cx="1566.55" cy="829.053" r="14.4" fill="#009af9" fill-rule="evenodd" fill-opacity="1" stroke="#000000" stroke-opacity="1" stroke-width="3.2"/>
<polyline clip-path="url(#clip202)" style="stroke:#e26f46; stroke-linecap:round; stroke-linejoin:round; stroke-width:16; stroke-opacity:1; fill:none" points="353.408,1246.04 2226.33,352.526 1523.99,687.593 1970.93,474.369 1651.69,626.672 1460.14,718.053 1332.44,778.974 1289.87,799.282 1545.27,677.439 353.408,1246.04 1375,758.667 1758.1,575.904 630.09,1114.04 1502.7,697.746 608.807,1124.19 715.223,1073.43 353.408,1246.04 1204.74,839.896 1779.39,565.75 438.541,1205.42 2098.63,413.448 310.842,1266.34 459.825,1195.27 353.408,1246.04 1438.85,728.207 374.692,1235.88 715.223,1073.43 2056.07,433.755 1481.42,707.9 1651.69,626.672 715.223,1073.43 1119.6,880.51 395.975,1225.73 715.223,1073.43 2247.62,342.373 1353.72,768.821 1715.54,596.211 1460.14,718.053 225.709,1306.96 438.541,1205.42 757.79,1053.12 1077.04,900.817 1183.45,850.049 1268.59,809.435 1779.39,565.75 1332.44,778.974 2183.77,372.833 1545.27,677.439 587.524,1134.35 2205.05,362.68 1758.1,575.904 1077.04,900.817 459.825,1195.27 1907.08,504.829 672.657,1093.73 332.125,1256.19 246.992,1296.8 1715.54,596.211 1992.22,464.215 1311.15,789.128 587.524,1134.35 481.108,1185.12 1523.99,687.593 736.507,1063.27 544.958,1154.65 2290.18,322.066 2247.62,342.373 417.258,1215.58 1587.84,657.132 2013.5,454.062 651.374,1103.89 289.559,1276.5 1907.08,504.829 757.79,1053.12 2226.33,352.526 502.391,1174.96 1183.45,850.049 2226.33,352.526 757.79,1053.12 1502.7,697.746 1332.44,778.974 1843.24,535.29 1907.08,504.829 353.408,1246.04 2183.77,372.833 1694.25,606.365 587.524,1134.35 1098.32,890.663 821.64,1022.66 544.958,1154.65 1247.3,819.589 523.674,1164.81 757.79,1053.12 1672.97,616.518 1204.74,839.896 630.09,1114.04 353.408,1246.04 1353.72,768.821 310.842,1266.34 1353.72,768.821 1651.69,626.672 1013.19,931.277 1460.14,718.053 587.524,1134.35 1055.76,910.97 1821.95,545.443 438.541,1205.42 1715.54,596.211 481.108,1185.12 1736.82,586.058 1566.55,667.286 693.94,1083.58 1609.12,646.979 608.807,1124.19 2098.63,413.448 374.692,1235.88 736.507,1063.27 1800.67,555.597 779.073,1042.97 204.426,1317.11 2290.18,322.066 204.426,1317.11 1651.69,626.672 353.408,1246.04 289.559,1276.5 1694.25,606.365 651.374,1103.89 1843.24,535.29 1885.8,514.983 481.108,1185.12 1353.72,768.821 1970.93,474.369 1672.97,616.518 2268.9,332.219 1907.08,504.829 1055.76,910.97 1183.45,850.049 1396.29,748.514 800.356,1032.81 225.709,1306.96 1460.14,718.053 395.975,1225.73 1013.19,931.277 1800.67,555.597 736.507,1063.27 864.206,1002.35 2183.77,372.833 1821.95,545.443 1077.04,900.817 672.657,1093.73 1460.14,718.053 2098.63,413.448 1992.22,464.215 1226.02,829.742 1353.72,768.821 268.275,1286.65 1885.8,514.983 779.073,1042.97 928.056,971.891 1375,758.667 885.489,992.199 1907.08,504.829 1332.44,778.974 332.125,1256.19 2162.48,382.987 757.79,1053.12 1758.1,575.904 566.241,1144.5 1736.82,586.058 1502.7,697.746 1481.42,707.9 1183.45,850.049 1800.67,555.597 1077.04,900.817 1587.84,657.132 1013.19,931.277 2247.62,342.373 502.391,1174.96 757.79,1053.12 885.489,992.199 2247.62,342.373 2119.92,403.294 715.223,1073.43 651.374,1103.89 1353.72,768.821 1545.27,677.439 1034.47,921.124 2183.77,372.833 459.825,1195.27 1587.84,657.132 1311.15,789.128 1481.42,707.9 1247.3,819.589 672.657,1093.73 374.692,1235.88 1587.84,657.132 1013.19,931.277 1098.32,890.663 1566.55,667.286 "/>
<path clip-path="url(#clip200)" d="M215.55 324.425 L959.531 324.425 L959.531 168.905 L215.55 168.905  Z" fill="#ffffff" fill-rule="evenodd" fill-opacity="1"/>
<polyline clip-path="url(#clip200)" style="stroke:#000000; stroke-linecap:round; stroke-linejoin:round; stroke-width:4; stroke-opacity:1; fill:none" points="215.55,324.425 959.531,324.425 959.531,168.905 215.55,168.905 215.55,324.425 "/>
<circle clip-path="url(#clip200)" cx="313.812" cy="220.745" r="23.04" fill="#009af9" fill-rule="evenodd" fill-opacity="1" stroke="#000000" stroke-opacity="1" stroke-width="5.12"/>
<path clip-path="url(#clip200)" d="M430.986 216.034 L430.986 202.006 L435.246 202.006 L435.246 238.025 L430.986 238.025 L430.986 234.136 Q429.644 236.451 427.584 237.585 Q425.547 238.696 422.676 238.696 Q417.977 238.696 415.014 234.946 Q412.074 231.196 412.074 225.085 Q412.074 218.974 415.014 215.224 Q417.977 211.474 422.676 211.474 Q425.547 211.474 427.584 212.608 Q429.644 213.719 430.986 216.034 M416.473 225.085 Q416.473 229.784 418.394 232.469 Q420.338 235.131 423.718 235.131 Q427.097 235.131 429.042 232.469 Q430.986 229.784 430.986 225.085 Q430.986 220.386 429.042 217.724 Q427.097 215.039 423.718 215.039 Q420.338 215.039 418.394 217.724 Q416.473 220.386 416.473 225.085 Z" fill="#000000" fill-rule="nonzero" fill-opacity="1" /><path clip-path="url(#clip200)" d="M455.801 224.992 Q450.639 224.992 448.648 226.173 Q446.658 227.353 446.658 230.201 Q446.658 232.469 448.139 233.812 Q449.644 235.131 452.213 235.131 Q455.755 235.131 457.884 232.631 Q460.037 230.108 460.037 225.941 L460.037 224.992 L455.801 224.992 M464.296 223.233 L464.296 238.025 L460.037 238.025 L460.037 234.089 Q458.579 236.451 456.403 237.585 Q454.227 238.696 451.079 238.696 Q447.097 238.696 444.736 236.474 Q442.398 234.228 442.398 230.478 Q442.398 226.103 445.315 223.881 Q448.255 221.659 454.065 221.659 L460.037 221.659 L460.037 221.242 Q460.037 218.303 458.093 216.705 Q456.171 215.085 452.676 215.085 Q450.454 215.085 448.347 215.617 Q446.241 216.15 444.296 217.215 L444.296 213.279 Q446.634 212.377 448.833 211.937 Q451.033 211.474 453.116 211.474 Q458.741 211.474 461.519 214.391 Q464.296 217.307 464.296 223.233 Z" fill="#000000" fill-rule="nonzero" fill-opacity="1" /><path clip-path="url(#clip200)" d="M477.282 204.738 L477.282 212.099 L486.056 212.099 L486.056 215.409 L477.282 215.409 L477.282 229.483 Q477.282 232.654 478.139 233.557 Q479.019 234.46 481.681 234.46 L486.056 234.46 L486.056 238.025 L481.681 238.025 Q476.75 238.025 474.875 236.196 Q473 234.344 473 229.483 L473 215.409 L469.875 215.409 L469.875 212.099 L473 212.099 L473 204.738 L477.282 204.738 Z" fill="#000000" fill-rule="nonzero" fill-opacity="1" /><path clip-path="url(#clip200)" d="M503.44 224.992 Q498.278 224.992 496.287 226.173 Q494.296 227.353 494.296 230.201 Q494.296 232.469 495.778 233.812 Q497.282 235.131 499.852 235.131 Q503.393 235.131 505.523 232.631 Q507.676 230.108 507.676 225.941 L507.676 224.992 L503.44 224.992 M511.935 223.233 L511.935 238.025 L507.676 238.025 L507.676 234.089 Q506.217 236.451 504.042 237.585 Q501.866 238.696 498.717 238.696 Q494.736 238.696 492.375 236.474 Q490.037 234.228 490.037 230.478 Q490.037 226.103 492.954 223.881 Q495.893 221.659 501.704 221.659 L507.676 221.659 L507.676 221.242 Q507.676 218.303 505.731 216.705 Q503.81 215.085 500.315 215.085 Q498.092 215.085 495.986 215.617 Q493.88 216.15 491.935 217.215 L491.935 213.279 Q494.273 212.377 496.472 211.937 Q498.671 211.474 500.754 211.474 Q506.379 211.474 509.157 214.391 Q511.935 217.307 511.935 223.233 Z" fill="#000000" fill-rule="nonzero" fill-opacity="1" /><polyline clip-path="url(#clip200)" style="stroke:#e26f46; stroke-linecap:round; stroke-linejoin:round; stroke-width:16; stroke-opacity:1; fill:none" points="240.115,272.585 387.509,272.585 "/>
<path clip-path="url(#clip200)" d="M416.75 259.147 L416.75 272.133 L422.63 272.133 Q425.894 272.133 427.676 270.443 Q429.459 268.754 429.459 265.629 Q429.459 262.527 427.676 260.837 Q425.894 259.147 422.63 259.147 L416.75 259.147 M412.074 255.305 L422.63 255.305 Q428.44 255.305 431.403 257.944 Q434.389 260.559 434.389 265.629 Q434.389 270.744 431.403 273.36 Q428.44 275.976 422.63 275.976 L416.75 275.976 L416.75 289.865 L412.074 289.865 L412.074 255.305 Z" fill="#000000" fill-rule="nonzero" fill-opacity="1" /><path clip-path="url(#clip200)" d="M450.13 276.832 Q444.968 276.832 442.977 278.013 Q440.986 279.193 440.986 282.041 Q440.986 284.309 442.468 285.652 Q443.972 286.971 446.542 286.971 Q450.083 286.971 452.213 284.471 Q454.366 281.948 454.366 277.781 L454.366 276.832 L450.13 276.832 M458.625 275.073 L458.625 289.865 L454.366 289.865 L454.366 285.929 Q452.908 288.291 450.732 289.425 Q448.556 290.536 445.408 290.536 Q441.426 290.536 439.065 288.314 Q436.727 286.068 436.727 282.318 Q436.727 277.943 439.644 275.721 Q442.584 273.499 448.394 273.499 L454.366 273.499 L454.366 273.082 Q454.366 270.143 452.421 268.545 Q450.5 266.925 447.005 266.925 Q444.783 266.925 442.676 267.457 Q440.57 267.99 438.625 269.055 L438.625 265.119 Q440.963 264.217 443.162 263.777 Q445.361 263.314 447.445 263.314 Q453.07 263.314 455.847 266.231 Q458.625 269.147 458.625 275.073 Z" fill="#000000" fill-rule="nonzero" fill-opacity="1" /><path clip-path="url(#clip200)" d="M482.421 267.92 Q481.704 267.504 480.847 267.318 Q480.014 267.11 478.995 267.11 Q475.384 267.11 473.44 269.471 Q471.519 271.809 471.519 276.207 L471.519 289.865 L467.236 289.865 L467.236 263.939 L471.519 263.939 L471.519 267.967 Q472.861 265.606 475.014 264.471 Q477.167 263.314 480.245 263.314 Q480.685 263.314 481.218 263.383 Q481.75 263.43 482.398 263.545 L482.421 267.92 Z" fill="#000000" fill-rule="nonzero" fill-opacity="1" /><path clip-path="url(#clip200)" d="M498.671 276.832 Q493.509 276.832 491.518 278.013 Q489.528 279.193 489.528 282.041 Q489.528 284.309 491.009 285.652 Q492.514 286.971 495.083 286.971 Q498.625 286.971 500.754 284.471 Q502.907 281.948 502.907 277.781 L502.907 276.832 L498.671 276.832 M507.166 275.073 L507.166 289.865 L502.907 289.865 L502.907 285.929 Q501.449 288.291 499.273 289.425 Q497.097 290.536 493.949 290.536 Q489.968 290.536 487.606 288.314 Q485.268 286.068 485.268 282.318 Q485.268 277.943 488.185 275.721 Q491.125 273.499 496.935 273.499 L502.907 273.499 L502.907 273.082 Q502.907 270.143 500.963 268.545 Q499.042 266.925 495.546 266.925 Q493.324 266.925 491.218 267.457 Q489.111 267.99 487.167 269.055 L487.167 265.119 Q489.505 264.217 491.704 263.777 Q493.903 263.314 495.986 263.314 Q501.611 263.314 504.389 266.231 Q507.166 269.147 507.166 275.073 Z" fill="#000000" fill-rule="nonzero" fill-opacity="1" /><path clip-path="url(#clip200)" d="M536.125 268.916 Q537.722 266.045 539.944 264.68 Q542.166 263.314 545.176 263.314 Q549.226 263.314 551.426 266.161 Q553.625 268.985 553.625 274.217 L553.625 289.865 L549.342 289.865 L549.342 274.355 Q549.342 270.629 548.023 268.823 Q546.703 267.018 543.995 267.018 Q540.685 267.018 538.764 269.217 Q536.842 271.416 536.842 275.212 L536.842 289.865 L532.56 289.865 L532.56 274.355 Q532.56 270.605 531.24 268.823 Q529.921 267.018 527.166 267.018 Q523.903 267.018 521.981 269.24 Q520.06 271.439 520.06 275.212 L520.06 289.865 L515.778 289.865 L515.778 263.939 L520.06 263.939 L520.06 267.967 Q521.518 265.582 523.555 264.448 Q525.592 263.314 528.393 263.314 Q531.217 263.314 533.185 264.749 Q535.176 266.184 536.125 268.916 Z" fill="#000000" fill-rule="nonzero" fill-opacity="1" /><path clip-path="url(#clip200)" d="M584.296 275.837 L584.296 277.92 L564.712 277.92 Q564.99 282.318 567.351 284.633 Q569.736 286.925 573.972 286.925 Q576.425 286.925 578.717 286.323 Q581.032 285.721 583.3 284.517 L583.3 288.545 Q581.009 289.517 578.601 290.027 Q576.194 290.536 573.717 290.536 Q567.513 290.536 563.879 286.925 Q560.268 283.314 560.268 277.156 Q560.268 270.791 563.694 267.064 Q567.143 263.314 572.976 263.314 Q578.208 263.314 581.24 266.693 Q584.296 270.05 584.296 275.837 M580.036 274.587 Q579.99 271.092 578.069 269.008 Q576.171 266.925 573.023 266.925 Q569.458 266.925 567.305 268.939 Q565.175 270.953 564.851 274.61 L580.036 274.587 Z" fill="#000000" fill-rule="nonzero" fill-opacity="1" /><path clip-path="url(#clip200)" d="M595.499 256.578 L595.499 263.939 L604.272 263.939 L604.272 267.249 L595.499 267.249 L595.499 281.323 Q595.499 284.494 596.356 285.397 Q597.235 286.3 599.897 286.3 L604.272 286.3 L604.272 289.865 L599.897 289.865 Q594.967 289.865 593.092 288.036 Q591.217 286.184 591.217 281.323 L591.217 267.249 L588.092 267.249 L588.092 263.939 L591.217 263.939 L591.217 256.578 L595.499 256.578 Z" fill="#000000" fill-rule="nonzero" fill-opacity="1" /><path clip-path="url(#clip200)" d="M624.897 267.92 Q624.18 267.504 623.323 267.318 Q622.49 267.11 621.471 267.11 Q617.86 267.11 615.916 269.471 Q613.995 271.809 613.995 276.207 L613.995 289.865 L609.712 289.865 L609.712 263.939 L613.995 263.939 L613.995 267.967 Q615.337 265.606 617.49 264.471 Q619.643 263.314 622.721 263.314 Q623.161 263.314 623.694 263.383 Q624.226 263.43 624.874 263.545 L624.897 267.92 Z" fill="#000000" fill-rule="nonzero" fill-opacity="1" /><path clip-path="url(#clip200)" d="M638.37 266.925 Q634.944 266.925 632.953 269.61 Q630.962 272.272 630.962 276.925 Q630.962 281.578 632.93 284.263 Q634.92 286.925 638.37 286.925 Q641.772 286.925 643.763 284.24 Q645.754 281.555 645.754 276.925 Q645.754 272.318 643.763 269.633 Q641.772 266.925 638.37 266.925 M638.37 263.314 Q643.925 263.314 647.096 266.925 Q650.268 270.536 650.268 276.925 Q650.268 283.291 647.096 286.925 Q643.925 290.536 638.37 290.536 Q632.791 290.536 629.62 286.925 Q626.471 283.291 626.471 276.925 Q626.471 270.536 629.62 266.925 Q632.791 263.314 638.37 263.314 Z" fill="#000000" fill-rule="nonzero" fill-opacity="1" /><path clip-path="url(#clip200)" d="M673.855 264.703 L673.855 268.731 Q672.05 267.805 670.105 267.342 Q668.161 266.879 666.078 266.879 Q662.906 266.879 661.309 267.851 Q659.735 268.823 659.735 270.768 Q659.735 272.249 660.869 273.105 Q662.004 273.939 665.43 274.703 L666.888 275.027 Q671.425 275.999 673.323 277.781 Q675.244 279.541 675.244 282.712 Q675.244 286.323 672.374 288.429 Q669.527 290.536 664.527 290.536 Q662.443 290.536 660.175 290.119 Q657.93 289.726 655.43 288.916 L655.43 284.517 Q657.791 285.744 660.082 286.369 Q662.374 286.971 664.619 286.971 Q667.629 286.971 669.249 285.953 Q670.869 284.911 670.869 283.036 Q670.869 281.3 669.689 280.374 Q668.531 279.448 664.573 278.592 L663.092 278.244 Q659.133 277.411 657.374 275.698 Q655.615 273.962 655.615 270.953 Q655.615 267.295 658.207 265.305 Q660.8 263.314 665.568 263.314 Q667.93 263.314 670.013 263.661 Q672.096 264.008 673.855 264.703 Z" fill="#000000" fill-rule="nonzero" fill-opacity="1" /><path clip-path="url(#clip200)" d="M719.272 275.837 L719.272 277.92 L699.689 277.92 Q699.966 282.318 702.327 284.633 Q704.712 286.925 708.948 286.925 Q711.402 286.925 713.693 286.323 Q716.008 285.721 718.276 284.517 L718.276 288.545 Q715.985 289.517 713.577 290.027 Q711.17 290.536 708.693 290.536 Q702.49 290.536 698.855 286.925 Q695.244 283.314 695.244 277.156 Q695.244 270.791 698.67 267.064 Q702.119 263.314 707.952 263.314 Q713.184 263.314 716.216 266.693 Q719.272 270.05 719.272 275.837 M715.013 274.587 Q714.966 271.092 713.045 269.008 Q711.147 266.925 707.999 266.925 Q704.434 266.925 702.281 268.939 Q700.152 270.953 699.828 274.61 L715.013 274.587 Z" fill="#000000" fill-rule="nonzero" fill-opacity="1" /><path clip-path="url(#clip200)" d="M742.79 264.703 L742.79 268.731 Q740.985 267.805 739.04 267.342 Q737.096 266.879 735.013 266.879 Q731.841 266.879 730.244 267.851 Q728.67 268.823 728.67 270.768 Q728.67 272.249 729.804 273.105 Q730.938 273.939 734.364 274.703 L735.823 275.027 Q740.36 275.999 742.258 277.781 Q744.179 279.541 744.179 282.712 Q744.179 286.323 741.309 288.429 Q738.462 290.536 733.462 290.536 Q731.378 290.536 729.11 290.119 Q726.864 289.726 724.364 288.916 L724.364 284.517 Q726.726 285.744 729.017 286.369 Q731.309 286.971 733.554 286.971 Q736.563 286.971 738.184 285.953 Q739.804 284.911 739.804 283.036 Q739.804 281.3 738.624 280.374 Q737.466 279.448 733.508 278.592 L732.026 278.244 Q728.068 277.411 726.309 275.698 Q724.55 273.962 724.55 270.953 Q724.55 267.295 727.142 265.305 Q729.735 263.314 734.503 263.314 Q736.864 263.314 738.948 263.661 Q741.031 264.008 742.79 264.703 Z" fill="#000000" fill-rule="nonzero" fill-opacity="1" /><path clip-path="url(#clip200)" d="M755.174 256.578 L755.174 263.939 L763.948 263.939 L763.948 267.249 L755.174 267.249 L755.174 281.323 Q755.174 284.494 756.031 285.397 Q756.911 286.3 759.573 286.3 L763.948 286.3 L763.948 289.865 L759.573 289.865 Q754.642 289.865 752.767 288.036 Q750.892 286.184 750.892 281.323 L750.892 267.249 L747.767 267.249 L747.767 263.939 L750.892 263.939 L750.892 256.578 L755.174 256.578 Z" fill="#000000" fill-rule="nonzero" fill-opacity="1" /><path clip-path="url(#clip200)" d="M769.549 263.939 L773.809 263.939 L773.809 289.865 L769.549 289.865 L769.549 263.939 M769.549 253.846 L773.809 253.846 L773.809 259.24 L769.549 259.24 L769.549 253.846 Z" fill="#000000" fill-rule="nonzero" fill-opacity="1" /><path clip-path="url(#clip200)" d="M802.906 268.916 Q804.503 266.045 806.725 264.68 Q808.947 263.314 811.957 263.314 Q816.007 263.314 818.206 266.161 Q820.406 268.985 820.406 274.217 L820.406 289.865 L816.123 289.865 L816.123 274.355 Q816.123 270.629 814.804 268.823 Q813.484 267.018 810.776 267.018 Q807.466 267.018 805.545 269.217 Q803.623 271.416 803.623 275.212 L803.623 289.865 L799.341 289.865 L799.341 274.355 Q799.341 270.605 798.021 268.823 Q796.702 267.018 793.947 267.018 Q790.683 267.018 788.762 269.24 Q786.841 271.439 786.841 275.212 L786.841 289.865 L782.559 289.865 L782.559 263.939 L786.841 263.939 L786.841 267.967 Q788.299 265.582 790.336 264.448 Q792.373 263.314 795.174 263.314 Q797.998 263.314 799.966 264.749 Q801.957 266.184 802.906 268.916 Z" fill="#000000" fill-rule="nonzero" fill-opacity="1" /><path clip-path="url(#clip200)" d="M840.683 276.832 Q835.521 276.832 833.53 278.013 Q831.54 279.193 831.54 282.041 Q831.54 284.309 833.021 285.652 Q834.526 286.971 837.095 286.971 Q840.637 286.971 842.767 284.471 Q844.919 281.948 844.919 277.781 L844.919 276.832 L840.683 276.832 M849.179 275.073 L849.179 289.865 L844.919 289.865 L844.919 285.929 Q843.461 288.291 841.285 289.425 Q839.109 290.536 835.961 290.536 Q831.98 290.536 829.618 288.314 Q827.281 286.068 827.281 282.318 Q827.281 277.943 830.197 275.721 Q833.137 273.499 838.947 273.499 L844.919 273.499 L844.919 273.082 Q844.919 270.143 842.975 268.545 Q841.054 266.925 837.558 266.925 Q835.336 266.925 833.23 267.457 Q831.123 267.99 829.179 269.055 L829.179 265.119 Q831.517 264.217 833.716 263.777 Q835.915 263.314 837.998 263.314 Q843.623 263.314 846.401 266.231 Q849.179 269.147 849.179 275.073 Z" fill="#000000" fill-rule="nonzero" fill-opacity="1" /><path clip-path="url(#clip200)" d="M875.012 267.874 L875.012 253.846 L879.271 253.846 L879.271 289.865 L875.012 289.865 L875.012 285.976 Q873.669 288.291 871.609 289.425 Q869.572 290.536 866.702 290.536 Q862.003 290.536 859.04 286.786 Q856.1 283.036 856.1 276.925 Q856.1 270.814 859.04 267.064 Q862.003 263.314 866.702 263.314 Q869.572 263.314 871.609 264.448 Q873.669 265.559 875.012 267.874 M860.498 276.925 Q860.498 281.624 862.419 284.309 Q864.364 286.971 867.743 286.971 Q871.123 286.971 873.067 284.309 Q875.012 281.624 875.012 276.925 Q875.012 272.226 873.067 269.564 Q871.123 266.879 867.743 266.879 Q864.364 266.879 862.419 269.564 Q860.498 272.226 860.498 276.925 Z" fill="#000000" fill-rule="nonzero" fill-opacity="1" /><path clip-path="url(#clip200)" d="M898.09 266.925 Q894.664 266.925 892.674 269.61 Q890.683 272.272 890.683 276.925 Q890.683 281.578 892.651 284.263 Q894.641 286.925 898.09 286.925 Q901.493 286.925 903.484 284.24 Q905.475 281.555 905.475 276.925 Q905.475 272.318 903.484 269.633 Q901.493 266.925 898.09 266.925 M898.09 263.314 Q903.646 263.314 906.817 266.925 Q909.988 270.536 909.988 276.925 Q909.988 283.291 906.817 286.925 Q903.646 290.536 898.09 290.536 Q892.512 290.536 889.34 286.925 Q886.192 283.291 886.192 276.925 Q886.192 270.536 889.34 266.925 Q892.512 263.314 898.09 263.314 Z" fill="#000000" fill-rule="nonzero" fill-opacity="1" /><path clip-path="url(#clip200)" d="M933.576 264.703 L933.576 268.731 Q931.771 267.805 929.826 267.342 Q927.882 266.879 925.799 266.879 Q922.627 266.879 921.03 267.851 Q919.456 268.823 919.456 270.768 Q919.456 272.249 920.59 273.105 Q921.724 273.939 925.15 274.703 L926.609 275.027 Q931.146 275.999 933.044 277.781 Q934.965 279.541 934.965 282.712 Q934.965 286.323 932.095 288.429 Q929.248 290.536 924.248 290.536 Q922.164 290.536 919.896 290.119 Q917.65 289.726 915.15 288.916 L915.15 284.517 Q917.512 285.744 919.803 286.369 Q922.095 286.971 924.34 286.971 Q927.349 286.971 928.97 285.953 Q930.59 284.911 930.59 283.036 Q930.59 281.3 929.41 280.374 Q928.252 279.448 924.294 278.592 L922.812 278.244 Q918.854 277.411 917.095 275.698 Q915.336 273.962 915.336 270.953 Q915.336 267.295 917.928 265.305 Q920.521 263.314 925.289 263.314 Q927.65 263.314 929.734 263.661 Q931.817 264.008 933.576 264.703 Z" fill="#000000" fill-rule="nonzero" fill-opacity="1" /></svg>
